SplineFontDB: 3.0
FontName: tsn4n-smcp-onum-pnum
FullName: tsn4n-smcp-onum-pnum
FamilyName: tsn4n-smcp-onum-pnum
Weight: Regular
Copyright: http://dejavu-fonts.org
Version: 10.18
ItalicAngle: 0
UnderlinePosition: -85
UnderlineWidth: 90
Ascent: 1638
Descent: 410
sfntRevision: 0x000a2e14
LayerCount: 2
Layer: 0 1 "Back"  1
Layer: 1 1 "Fore"  0
NeedsXUIDChange: 1
XUID: [1021 545 1002448030 9877193]
FSType: 0
OS2Version: 3
OS2_WeightWidthSlopeOnly: 0
OS2_UseTypoMetrics: 1
CreationTime: 1339177170
ModificationTime: 1339182794
PfmFamily: 17
TTFWeight: 400
TTFWidth: 5
LineGap: 0
VLineGap: 0
Panose: 2 6 6 3 5 6 5 2 2 4
OS2TypoAscent: 263
OS2TypoAOffset: 1
OS2TypoDescent: -73
OS2TypoDOffset: 1
OS2TypoLinegap: 0
OS2WinAscent: 336
OS2WinAOffset: 1
OS2WinDescent: 0
OS2WinDOffset: 1
HheadAscent: 336
HheadAOffset: 1
HheadDescent: 0
HheadDOffset: 1
OS2SubXSize: 1331
OS2SubYSize: 1433
OS2SubXOff: 0
OS2SubYOff: 286
OS2SupXSize: 1331
OS2SupYSize: 1433
OS2SupXOff: 0
OS2SupYOff: 983
OS2StrikeYSize: 102
OS2StrikeYPos: 530
OS2Vendor: 'PfEd'
OS2CodePages: 00000000.00000000
OS2UnicodeRanges: 00000000.00000000.00000000.00000000
MarkAttachClasses: 1
DEI: 91125
TtTable: prep
PUSHW_1
 511
SCANCTRL
PUSHB_1
 1
SCANTYPE
SVTCA[y-axis]
MPPEM
PUSHB_1
 8
LT
IF
PUSHB_2
 1
 1
INSTCTRL
EIF
PUSHB_2
 70
 6
CALL
IF
POP
PUSHB_1
 16
EIF
MPPEM
PUSHB_1
 20
GT
IF
POP
PUSHB_1
 128
EIF
SCVTCI
PUSHB_1
 6
CALL
NOT
IF
SVTCA[y-axis]
PUSHB_1
 2
DUP
RCVT
PUSHB_1
 3
CALL
WCVTP
PUSHB_1
 3
DUP
RCVT
PUSHB_3
 2
 84
 2
CALL
PUSHB_1
 3
CALL
WCVTP
SVTCA[x-axis]
PUSHB_1
 4
DUP
RCVT
PUSHB_1
 3
CALL
WCVTP
PUSHB_1
 5
DUP
RCVT
PUSHB_3
 4
 17
 2
CALL
PUSHB_2
 3
 70
SROUND
CALL
WCVTP
PUSHB_1
 6
DUP
RCVT
PUSHW_3
 4
 32767
 2
CALL
PUSHB_2
 3
 70
SROUND
CALL
WCVTP
PUSHB_1
 7
DUP
RCVT
PUSHB_3
 6
 50
 2
CALL
PUSHB_2
 3
 70
SROUND
CALL
WCVTP
EIF
PUSHB_1
 20
CALL
EndTTInstrs
TtTable: fpgm
PUSHB_1
 0
FDEF
PUSHB_1
 0
SZP0
MPPEM
PUSHB_1
 42
LT
IF
PUSHB_1
 74
SROUND
EIF
PUSHB_1
 0
SWAP
MIAP[rnd]
RTG
PUSHB_1
 6
CALL
IF
RTDG
EIF
MPPEM
PUSHB_1
 42

StartChar: exclam
Encoding: 0 33 0
Width: 742
VWidth: 0
GlyphClass: 2
Flags: W
HStem: -25 267<286.582 455.387> 1260 20G<255 488>
VStem: 251 241<15.2227 201.777> 315 111<392 758.002>
LayerCount: 2
Fore
SplineSet
251 108 m 256,0,1
 251 164 251 164 285.5 203 c 128,-1,2
 320 242 320 242 372 242 c 0,3,4
 422 242 422 242 457 203 c 128,-1,5
 492 164 492 164 492 108 c 0,6,7
 492 53 492 53 456.5 14 c 128,-1,8
 421 -25 421 -25 372 -25 c 0,9,10
 320 -25 320 -25 285.5 13.5 c 128,-1,11
 251 52 251 52 251 108 c 256,0,1
255 1280 m 1,12,-1
 488 1280 l 1,13,-1
 426 601 l 1,14,-1
 426 392 l 1,15,-1
 315 392 l 1,16,-1
 315 601 l 1,17,-1
 255 1280 l 1,12,-1
EndSplineSet
Validated: 1
EndChar

StartChar: numbersign
Encoding: 1 35 1
Width: 1572
VWidth: 0
GlyphClass: 2
Flags: W
HStem: 0 21G<328 488.09 752 913.791> 335 153<142 421 620 847 1041 1328> 751 154<245 534 736 958 1153 1431>
VStem: 328 154<0 154> 674 154<1107 1261> 752 156<0 156> 1092 156<1105 1261>
DStem2: 328 0 482 0 0.264605 0.964357<40.7492 347.668 547.871 778.741 980.702 1307.61> 752 0 908 0 0.26033 0.96552<40.6115 348.18 546.409 778.733 978.188 1306.03>
LayerCount: 2
Fore
SplineSet
958 751 m 1,0,-1
 701 751 l 1,1,-1
 620 488 l 1,2,-1
 883 488 l 1,3,-1
 958 751 l 1,0,-1
828 1261 m 1,4,-1
 736 905 l 1,5,-1
 995 905 l 1,6,-1
 1092 1261 l 1,7,-1
 1248 1261 l 1,8,-1
 1153 905 l 1,9,-1
 1431 905 l 1,10,-1
 1431 751 l 1,11,-1
 1118 751 l 1,12,-1
 1041 488 l 1,13,-1
 1328 488 l 1,14,-1
 1328 335 l 1,15,-1
 1005 335 l 1,16,-1
 908 0 l 1,17,-1
 752 0 l 1,18,-1
 847 335 l 1,19,-1
 584 335 l 1,20,-1
 482 0 l 1,21,-1
 328 0 l 1,22,-1
 421 335 l 1,23,-1
 142 335 l 1,24,-1
 142 488 l 1,25,-1
 456 488 l 1,26,-1
 534 751 l 1,27,-1
 245 751 l 1,28,-1
 245 905 l 1,29,-1
 572 905 l 1,30,-1
 674 1261 l 1,31,-1
 828 1261 l 1,4,-1
EndSplineSet
Validated: 1
EndChar

StartChar: dollar
Encoding: 2 36 2
Width: 1175
VWidth: 0
GlyphClass: 2
Flags: W
HStem: -35 100<349.061 532 623 768.184> 68 233<157 256.25> 791 221<866.579 964> 1009 102<392.246 532 623 771.935>
VStem: 157 100<151.686 301> 159 178<730.546 955.46> 532 91<-266 -35 65 446 656 1009 1111 1341> 832 191<130.008 358.856> 865 99<791 914.444>
LayerCount: 2
Fore
SplineSet
623 65 m 1,0,1
 725 65 725 65 778.5 115.5 c 128,-1,2
 832 166 832 166 832 246 c 0,3,4
 832 319 832 319 778.5 369.5 c 128,-1,5
 725 420 725 420 623 446 c 1,6,-1
 623 65 l 1,0,1
532 1009 m 1,7,8
 439 1009 439 1009 388 962 c 128,-1,9
 337 915 337 915 337 840 c 0,10,11
 337 773 337 773 384 728 c 128,-1,12
 431 683 431 683 532 656 c 1,13,-1
 532 1009 l 1,7,8
157 68 m 1,14,-1
 157 301 l 1,15,-1
 257 301 l 1,16,17
 257 185 257 185 327 125 c 128,-1,18
 397 65 397 65 532 65 c 1,19,-1
 532 474 l 1,20,21
 325 529 325 529 242 601.5 c 128,-1,22
 159 674 159 674 159 794 c 0,23,24
 159 933 159 933 257 1022 c 128,-1,25
 355 1111 355 1111 532 1111 c 1,26,-1
 532 1341 l 1,27,-1
 623 1341 l 1,28,-1
 623 1111 l 1,29,30
 714 1111 714 1111 798.5 1082 c 128,-1,31
 883 1053 883 1053 964 1012 c 1,32,-1
 964 791 l 1,33,-1
 865 791 l 1,34,35
 854 889 854 889 791.5 949 c 128,-1,36
 729 1009 729 1009 623 1009 c 1,37,-1
 623 628 l 1,38,39
 845 570 845 570 934 495 c 128,-1,40
 1023 420 1023 420 1023 295 c 0,41,42
 1023 151 1023 151 918 58 c 128,-1,43
 813 -35 813 -35 623 -35 c 1,44,-1
 623 -266 l 1,45,-1
 532 -266 l 1,46,-1
 532 -35 l 1,47,48
 446 -35 446 -35 352 -8.5 c 128,-1,49
 258 18 258 18 157 68 c 1,14,-1
EndSplineSet
Validated: 1
EndChar

StartChar: quotesingle
Encoding: 3 39 3
Width: 507
VWidth: 0
GlyphClass: 2
Flags: W
HStem: 725 555<181 325>
VStem: 181 144<725 1280>
LayerCount: 2
Fore
SplineSet
325 1280 m 1,0,-1
 325 725 l 1,1,-1
 181 725 l 1,2,-1
 181 1280 l 1,3,-1
 325 1280 l 1,0,-1
EndSplineSet
Validated: 1
EndChar

StartChar: parenleft
Encoding: 4 40 4
Width: 720
VWidth: 0
GlyphClass: 2
Flags: W
VStem: 146 184<189.082 871.349>
LayerCount: 2
Fore
SplineSet
589 -273 m 1,0,1
 370 -180 370 -180 258 22.5 c 128,-1,2
 146 225 146 225 146 530 c 128,-1,3
 146 835 146 835 258 1038 c 128,-1,4
 370 1241 370 1241 589 1334 c 1,5,-1
 589 1250 l 1,6,7
 451 1159 451 1159 390.5 994 c 128,-1,8
 330 829 330 829 330 530 c 0,9,10
 330 232 330 232 390 66.5 c 128,-1,11
 450 -99 450 -99 589 -189 c 1,12,-1
 589 -273 l 1,0,1
EndSplineSet
Validated: 1
EndChar

StartChar: parenright
Encoding: 5 41 5
Width: 720
VWidth: 0
GlyphClass: 2
Flags: W
VStem: 390 184<189.194 871.349>
LayerCount: 2
Fore
SplineSet
130 -273 m 1,0,-1
 130 -189 l 1,1,2
 269 -98 269 -98 329.5 66.5 c 128,-1,3
 390 231 390 231 390 530 c 128,-1,4
 390 829 390 829 330 994 c 0,5,6
 268 1159 268 1159 130 1250 c 1,7,-1
 130 1334 l 1,8,9
 350 1241 350 1241 462 1038 c 128,-1,10
 574 835 574 835 574 530 c 0,11,12
 574 226 574 226 462 23 c 128,-1,13
 350 -180 350 -180 130 -273 c 1,0,-1
EndSplineSet
Validated: 1
EndChar

StartChar: plus
Encoding: 6 43 6
Width: 1545
VWidth: 0
GlyphClass: 2
Flags: W
HStem: 0 21G<700 845> 459 162<195 700 845 1350>
VStem: 700 145<0 459 621 1102>
LayerCount: 2
Fore
SplineSet
845 1102 m 1,0,-1
 845 621 l 1,1,-1
 1350 621 l 1,2,-1
 1350 459 l 1,3,-1
 845 459 l 1,4,-1
 845 0 l 1,5,-1
 700 0 l 1,6,-1
 700 459 l 1,7,-1
 195 459 l 1,8,-1
 195 621 l 1,9,-1
 700 621 l 1,10,-1
 700 1102 l 1,11,-1
 845 1102 l 1,0,-1
EndSplineSet
Validated: 1
EndChar

StartChar: comma
Encoding: 7 44 7
Width: 587
VWidth: 0
GlyphClass: 2
Flags: W
HStem: -276 507
VStem: 231 179<-11.0508 231>
LayerCount: 2
Fore
SplineSet
67 -196 m 1,0,1
 152 -127 152 -127 191.5 -33 c 128,-1,2
 231 61 231 61 231 194 c 2,3,-1
 231 231 l 1,4,-1
 410 231 l 1,5,6
 410 60 410 60 340.5 -63 c 128,-1,7
 271 -186 271 -186 139 -276 c 1,8,-1
 67 -196 l 1,0,1
EndSplineSet
Validated: 1
EndChar

StartChar: hyphen
Encoding: 8 45 8
Width: 626
VWidth: 0
GlyphClass: 2
Flags: W
HStem: 392 157<81 545>
VStem: 81 464<392 549>
LayerCount: 2
Fore
SplineSet
81 549 m 1,0,-1
 545 549 l 1,1,-1
 545 392 l 1,2,-1
 81 392 l 1,3,-1
 81 549 l 1,0,-1
EndSplineSet
Validated: 1
EndChar

StartChar: period
Encoding: 9 46 9
Width: 587
VWidth: 0
GlyphClass: 2
Flags: W
HStem: -25 267<209.582 378.387>
VStem: 174 241<15.2227 201.777>
LayerCount: 2
Fore
SplineSet
174 108 m 256,0,1
 174 164 174 164 208.5 203 c 128,-1,2
 243 242 243 242 294 242 c 0,3,4
 344 242 344 242 379.5 203 c 128,-1,5
 415 164 415 164 415 108 c 0,6,7
 415 53 415 53 379.5 14 c 128,-1,8
 344 -25 344 -25 294 -25 c 0,9,10
 242 -25 242 -25 208 13.5 c 128,-1,11
 174 52 174 52 174 108 c 256,0,1
EndSplineSet
Validated: 1
EndChar

StartChar: slash
Encoding: 10 47 10
Width: 635
VWidth: 0
GlyphClass: 2
Flags: W
HStem: 1260 20G<483.223 635>
VStem: 0 635
DStem2: 0 -166 145 -166 0.32094 0.9471<46.5363 1526.77>
LayerCount: 2
Fore
SplineSet
490 1280 m 1,0,-1
 635 1280 l 1,1,-1
 145 -166 l 1,2,-1
 0 -166 l 1,3,-1
 490 1280 l 1,0,-1
EndSplineSet
Validated: 1
EndChar

StartChar: zero
Encoding: 11 48 11
Width: 1174
VWidth: 0
GlyphClass: 2
Flags: W
HStem: -25 99<453.679 720.569> 1204 99<453.679 720.569>
VStem: 122 190<312.849 965.481> 862 190<312.849 965.151>
LayerCount: 2
Fore
SplineSet
587 74 m 256,0,1
 725 74 725 74 793.5 214.5 c 128,-1,2
 862 355 862 355 862 639 c 128,-1,3
 862 923 862 923 793.5 1063.5 c 128,-1,4
 725 1204 725 1204 587 1204 c 256,5,6
 449 1204 449 1204 380.5 1063.5 c 128,-1,7
 312 923 312 923 312 639 c 128,-1,8
 312 355 312 355 380.5 214.5 c 128,-1,9
 449 74 449 74 587 74 c 256,0,1
587 -25 m 0,10,11
 368 -25 368 -25 245 150 c 128,-1,12
 122 325 122 325 122 639 c 0,13,14
 122 954 122 954 245 1128.5 c 128,-1,15
 368 1303 368 1303 587 1303 c 4,16,17
 807 1303 807 1303 929.5 1128 c 128,-1,18
 1052 953 1052 953 1052 639 c 128,-1,19
 1052 325 1052 325 929.5 150 c 128,-1,20
 807 -25 807 -25 587 -25 c 0,10,11
EndSplineSet
Validated: 1
EndChar

StartChar: one
Encoding: 12 49 12
Width: 942
VWidth: 0
GlyphClass: 2
Flags: W
HStem: 0 106<160 404 586 820> 1283 20G<438.104 586>
VStem: 404 182<106 1140>
DStem2: 138 1111 122 979 0.867605 0.497254<0 245.203>
LayerCount: 2
Fore
SplineSet
160 0 m 1,0,-1
 160 106 l 1,1,-1
 404 106 l 1,2,-1
 404 1140 l 1,3,-1
 122 979 l 1,4,-1
 138 1111 l 1,5,-1
 473 1303 l 1,6,-1
 586 1303 l 1,7,-1
 586 106 l 1,8,-1
 820 106 l 1,9,-1
 820 0 l 1,10,-1
 160 0 l 1,0,-1
EndSplineSet
EndChar

StartChar: two
Encoding: 13 50 13
Width: 1189
VWidth: 0
GlyphClass: 2
Flags: W
HStem: 0 164<357 903> 969 220<135 224.223> 1204 99<343.437 692.125>
VStem: 135 102<969 1100.04> 799 191<774.582 1097.61> 903 106<164 316>
DStem2: 125 108 357 164 0.745335 0.66669<210.252 871.619>
LayerCount: 2
Fore
SplineSet
237 969 m 1,0,-1
 135 969 l 1,1,-1
 135 1189 l 1,2,3
 233 1244 233 1244 333 1274 c 0,4,5
 431 1303 431 1303 522 1303 c 0,6,7
 525 1303 525 1303 528 1303 c 0,8,9
 742 1303 742 1303 866 1204.5 c 128,-1,10
 990 1106 990 1106 990 937 c 0,11,12
 990 746 990 746 711 481 c 0,13,14
 689 461 689 461 678 451 c 2,15,-1
 357 164 l 1,16,-1
 903 164 l 1,17,-1
 903 316 l 1,18,-1
 1009 316 l 1,19,-1
 1009 0 l 1,20,-1
 125 0 l 1,21,-1
 125 108 l 1,22,-1
 542 481 l 2,23,24
 681 607 681 607 740 712.5 c 128,-1,25
 799 818 799 818 799 934 c 0,26,27
 799 1061 799 1061 726.5 1132.5 c 128,-1,28
 654 1204 654 1204 526 1204 c 0,29,30
 394 1204 394 1204 322 1145 c 128,-1,31
 250 1086 250 1086 237 969 c 1,0,-1
EndSplineSet
Validated: 1
EndChar

StartChar: three
Encoding: 14 51 14
Width: 1184
VWidth: 0
GlyphClass: 2
Flags: W
HStem: -25 101<351.735 735.5> 76 238<140 241.125> 640 103<442 695.188> 1204 99<381.425 725.684>
VStem: 140 102<174.338 314> 179 102<950 1106.59> 808 184<843.408 1125.45> 856 191<190.622 520.705>
LayerCount: 2
Fore
SplineSet
179 1213 m 1,0,1
 286 1257 286 1257 384 1280 c 128,-1,2
 482 1303 482 1303 568 1303 c 0,3,4
 768 1303 768 1303 880 1222 c 128,-1,5
 992 1141 992 1141 992 996 c 0,6,7
 992 880 992 880 915 802.5 c 128,-1,8
 838 725 838 725 696 698 c 1,9,10
 863 676 863 676 955 583.5 c 128,-1,11
 1047 491 1047 491 1047 345 c 0,12,13
 1047 166 1047 166 919 70.5 c 128,-1,14
 791 -25 791 -25 551 -25 c 0,15,16
 444 -25 444 -25 342.5 0 c 128,-1,17
 241 25 241 25 140 76 c 1,18,-1
 140 314 l 1,19,-1
 242 314 l 1,20,21
 242 196 242 196 326.5 136 c 128,-1,22
 411 76 411 76 555 76 c 0,23,24
 695 76 695 76 775.5 148 c 128,-1,25
 856 220 856 220 856 346 c 0,26,27
 856 491 856 491 773 565.5 c 128,-1,28
 690 640 690 640 529 640 c 2,29,-1
 442 640 l 1,30,-1
 442 743 l 1,31,-1
 488 743 l 2,32,33
 648 743 648 743 728 802.5 c 128,-1,34
 808 862 808 862 808 982 c 0,35,36
 808 1090 808 1090 742.5 1147 c 128,-1,37
 677 1204 677 1204 553 1204 c 256,38,39
 429 1204 429 1204 355 1140 c 128,-1,40
 281 1076 281 1076 281 950 c 1,41,-1
 179 950 l 1,42,-1
 179 1213 l 1,0,1
EndSplineSet
Validated: 1
EndChar

StartChar: four
Encoding: 15 52 15
Width: 1184
VWidth: 0
GlyphClass: 2
Flags: W
HStem: 0 106<433 654 835 1051> 344 108<193 654 835 1092> 1283 20G<646.771 835>
VStem: 654 181<106 344 452 1099>
DStem2: 57 454 193 452 0.579694 0.814834<77.2087 871.645>
LayerCount: 2
Fore
SplineSet
654 452 m 1,0,-1
 654 1099 l 1,1,-1
 193 452 l 1,2,-1
 654 452 l 1,0,-1
1051 0 m 1,3,-1
 433 0 l 1,4,-1
 433 106 l 1,5,-1
 654 106 l 1,6,-1
 654 344 l 1,7,-1
 57 344 l 1,8,-1
 57 454 l 1,9,-1
 661 1303 l 1,10,-1
 835 1303 l 1,11,-1
 835 452 l 1,12,-1
 1092 452 l 1,13,-1
 1092 344 l 1,14,-1
 835 344 l 1,15,-1
 835 106 l 1,16,-1
 1051 106 l 1,17,-1
 1051 0 l 1,3,-1
EndSplineSet
Validated: 1
EndChar

StartChar: five
Encoding: 16 53 16
Width: 1173
VWidth: 0
GlyphClass: 2
Flags: W
HStem: -25 101<358.655 716.447> 76 236<157 257.125> 730 100<366.911 717.15> 1116 164<312 928>
VStem: 157 102<169.5 312> 216 96<757 1116> 841 191<203.703 600.592>
LayerCount: 2
Fore
SplineSet
928 1280 m 1,0,-1
 928 1116 l 1,1,-1
 312 1116 l 1,2,-1
 312 757 l 1,3,4
 359 793 359 793 421.5 811.5 c 128,-1,5
 484 830 484 830 561 830 c 0,6,7
 779 830 779 830 905.5 715.5 c 128,-1,8
 1032 601 1032 601 1032 403 c 0,9,10
 1032 201 1032 201 904.5 88 c 128,-1,11
 777 -25 777 -25 546 -25 c 0,12,13
 453 -25 453 -25 355.5 0 c 128,-1,14
 258 25 258 25 157 76 c 1,15,-1
 157 312 l 1,16,-1
 259 312 l 1,17,18
 259 196 259 196 336 136 c 128,-1,19
 413 76 413 76 546 76 c 0,20,21
 688 76 688 76 764.5 160 c 128,-1,22
 841 244 841 244 841 403 c 0,23,24
 841 561 841 561 765 645.5 c 128,-1,25
 689 730 689 730 546 730 c 0,26,27
 465 730 465 730 403 704 c 128,-1,28
 341 678 341 678 294 623 c 1,29,-1
 216 623 l 1,30,-1
 216 1280 l 1,31,-1
 928 1280 l 1,0,-1
EndSplineSet
Validated: 1
EndChar

StartChar: six
Encoding: 17 54 17
Width: 1175
VWidth: 0
GlyphClass: 2
Flags: W
HStem: -25 99<457.004 755.422> 736 100<449.357 755.113> 997 246<879.392 988> 1204 99<483.134 806.629>
VStem: 123 218<288.264 770.085> 123 188<695 920.191> 868 191<201.027 614.5> 886 102<997 1123.52>
LayerCount: 2
Fore
SplineSet
605 74 m 256,0,1
 732 74 732 74 800 159.5 c 128,-1,2
 868 245 868 245 868 405 c 256,3,4
 868 565 868 565 800 650.5 c 128,-1,5
 732 736 732 736 605 736 c 0,6,7
 476 736 476 736 408.5 653.5 c 128,-1,8
 341 571 341 571 341 415 c 0,9,10
 341 251 341 251 409.5 162.5 c 128,-1,11
 478 74 478 74 605 74 c 256,0,1
311 695 m 1,12,13
 372 766 372 766 450 801 c 128,-1,14
 528 836 528 836 625 836 c 0,15,16
 826 836 826 836 942 720 c 0,17,18
 1059 606 1059 606 1059 406 c 0,19,20
 1059 211 1059 211 933 93 c 128,-1,21
 807 -25 807 -25 597 -25 c 0,22,23
 369 -25 369 -25 246 136.5 c 128,-1,24
 123 298 123 298 123 598 c 0,25,26
 123 934 123 934 268.5 1118.5 c 128,-1,27
 414 1303 414 1303 678 1303 c 0,28,29
 749 1303 749 1303 827.5 1288 c 128,-1,30
 906 1273 906 1273 988 1243 c 1,31,-1
 988 997 l 1,32,-1
 886 997 l 1,33,34
 875 1098 875 1098 817 1151 c 128,-1,35
 759 1204 759 1204 660 1204 c 0,36,37
 485 1204 485 1204 398 1079 c 128,-1,38
 311 954 311 954 311 695 c 1,12,13
EndSplineSet
Validated: 1
EndChar

StartChar: seven
Encoding: 18 55 18
Width: 1194
VWidth: 0
GlyphClass: 2
Flags: W
HStem: 0 21G<381 529.185> 1116 164<261 894>
VStem: 155 106<962 1116>
DStem2: 381 0 520 0 0.417345 0.908748<58.011 1228.26>
LayerCount: 2
Fore
SplineSet
1061 1178 m 1,0,-1
 520 0 l 1,1,-1
 381 0 l 1,2,-1
 894 1116 l 1,3,-1
 261 1116 l 1,4,-1
 261 962 l 1,5,-1
 155 962 l 1,6,-1
 155 1280 l 1,7,-1
 1061 1280 l 1,8,-1
 1061 1178 l 1,0,-1
EndSplineSet
Validated: 1
EndChar

StartChar: eight
Encoding: 19 56 19
Width: 1182
VWidth: 0
GlyphClass: 2
Flags: W
HStem: -25 99<423.167 758.315> 629 100<452.881 730.003> 1204 99<437.619 744.469>
VStem: 123 191<181.468 519.02> 167 184<813.649 1119.17> 830 184<812.543 1120.28> 867 191<181.468 519.346>
LayerCount: 2
Fore
SplineSet
867 352 m 128,-1,1
 867 484 867 484 794.5 556.5 c 128,-1,2
 722 629 722 629 591 629 c 256,3,4
 460 629 460 629 387 556 c 128,-1,5
 314 483 314 483 314 352 c 0,6,7
 314 220 314 220 386.5 147 c 128,-1,8
 459 74 459 74 591 74 c 256,9,10
 722 74 722 74 794.5 147 c 128,-1,0
 867 220 867 220 867 352 c 128,-1,1
830 967 m 0,11,12
 830 1079 830 1079 767 1141.5 c 128,-1,13
 704 1204 704 1204 591 1204 c 0,14,15
 479 1204 479 1204 415 1141.5 c 128,-1,16
 351 1079 351 1079 351 967 c 0,17,18
 351 854 351 854 414.5 791.5 c 128,-1,19
 478 729 478 729 591 729 c 128,-1,20
 704 729 704 729 767 791.5 c 128,-1,21
 830 854 830 854 830 967 c 0,11,12
732 680 m 1,22,23
 886 660 886 660 972 572.5 c 128,-1,24
 1058 485 1058 485 1058 349 c 0,25,26
 1058 169 1058 169 937 72 c 128,-1,27
 816 -25 816 -25 591 -25 c 128,-1,28
 366 -25 366 -25 244.5 72 c 128,-1,29
 123 169 123 169 123 349 c 0,30,31
 123 485 123 485 209.5 572.5 c 128,-1,32
 296 660 296 660 451 680 c 1,33,34
 314 703 314 703 240.5 778 c 128,-1,35
 167 853 167 853 167 970 c 0,36,37
 167 1125 167 1125 280 1214 c 128,-1,38
 393 1303 393 1303 591 1303 c 256,39,40
 789 1303 789 1303 901.5 1214 c 128,-1,41
 1014 1125 1014 1125 1014 970 c 0,42,43
 1014 853 1014 853 941 778 c 128,-1,44
 868 703 868 703 732 680 c 1,22,23
EndSplineSet
Validated: 1
EndChar

StartChar: nine
Encoding: 20 57 20
Width: 1175
VWidth: 0
GlyphClass: 2
Flags: W
HStem: -25 99<369.438 691.454> 35 248<186 294.833> 441 99<419.211 725.428> 1204 99<419.617 718.346>
VStem: 116 191<662.571 1077.28> 186 102<157.938 283> 834 217<507.25 989.578> 863 188<357.809 582>
LayerCount: 2
Fore
SplineSet
863 582 m 1,0,1
 803 511 803 511 724.5 476 c 128,-1,2
 646 441 646 441 548 441 c 0,3,4
 348 441 348 441 232 556.5 c 128,-1,5
 116 672 116 672 116 872 c 0,6,7
 116 1068 116 1068 242 1185.5 c 128,-1,8
 368 1303 368 1303 578 1303 c 0,9,10
 806 1303 806 1303 928.5 1141.5 c 128,-1,11
 1051 980 1051 980 1051 680 c 0,12,13
 1051 344 1051 344 905.5 159.5 c 128,-1,14
 760 -25 760 -25 497 -25 c 0,15,16
 426 -25 426 -25 347 -10 c 128,-1,17
 268 5 268 5 186 35 c 1,18,-1
 186 283 l 1,19,-1
 288 283 l 1,20,21
 300 182 300 182 358.5 128 c 128,-1,22
 417 74 417 74 515 74 c 0,23,24
 690 74 690 74 776.5 198 c 128,-1,25
 863 322 863 322 863 582 c 1,0,1
571 1204 m 0,26,27
 443 1204 443 1204 375 1118.5 c 128,-1,28
 307 1033 307 1033 307 872 c 256,29,30
 307 712 307 712 375 626 c 128,-1,31
 443 540 443 540 571 540 c 256,32,33
 699 540 699 540 766.5 623 c 128,-1,34
 834 706 834 706 834 862 c 0,35,36
 834 1027 834 1027 766 1115.5 c 128,-1,37
 698 1204 698 1204 571 1204 c 0,26,27
EndSplineSet
Validated: 1
EndChar

StartChar: colon
Encoding: 21 58 21
Width: 622
VWidth: 0
GlyphClass: 2
Flags: W
HStem: -25 267<227.582 396.902> 496 266<227.582 397.418>
VStem: 192 241<14.7074 201.777 535.707 722.293>
LayerCount: 2
Fore
SplineSet
192 108 m 256,0,1
 192 164 192 164 226.5 203 c 128,-1,2
 261 242 261 242 312 242 c 256,3,4
 363 242 363 242 398 203 c 128,-1,5
 433 164 433 164 433 108 c 256,6,7
 433 52 433 52 398.5 13.5 c 128,-1,8
 364 -25 364 -25 312 -25 c 256,9,10
 260 -25 260 -25 226 13.5 c 128,-1,11
 192 52 192 52 192 108 c 256,0,1
192 629 m 256,12,13
 192 685 192 685 226.5 723.5 c 128,-1,14
 261 762 261 762 312 762 c 0,15,16
 364 762 364 762 398.5 724 c 128,-1,17
 433 686 433 686 433 629 c 256,18,19
 433 572 433 572 398.5 534 c 128,-1,20
 364 496 364 496 312 496 c 0,21,22
 261 496 261 496 226.5 534.5 c 128,-1,23
 192 573 192 573 192 629 c 256,12,13
EndSplineSet
Validated: 1
EndChar

StartChar: semicolon
Encoding: 22 59 22
Width: 625
VWidth: 0
GlyphClass: 2
Flags: W
HStem: 514 267<235.097 403.902>
VStem: 199 241<554.254 740.747> 234 179<-33.2933 174>
LayerCount: 2
Fore
SplineSet
67 -191 m 1,0,1
 153 -132 153 -132 193.5 -51.5 c 128,-1,2
 234 29 234 29 234 143 c 2,3,-1
 234 174 l 1,4,-1
 413 174 l 1,5,6
 413 27 413 27 343 -77.5 c 128,-1,7
 273 -182 273 -182 140 -259 c 1,8,-1
 67 -191 l 1,0,1
199 648 m 256,9,10
 199 702 199 702 234 742 c 0,11,12
 268 780 268 780 319 781 c 256,13,14
 370 781 370 781 405 742 c 0,15,16
 440 704 440 704 440 648 c 128,-1,17
 440 592 440 592 405 553 c 128,-1,18
 370 514 370 514 319 514 c 256,19,20
 269 514 269 514 234 553 c 0,21,22
 199 593 199 593 199 648 c 256,9,10
EndSplineSet
Validated: 1
EndChar

StartChar: less
Encoding: 23 60 23
Width: 1544
VWidth: 0
GlyphClass: 2
Flags: W
VStem: 195 251<342.5 757.5>
DStem2: 195 632 446 549 0.945103 0.326773<210.099 1165.48> 446 549 195 468 0.945356 -0.326041<0 955.381>
LayerCount: 2
Fore
SplineSet
1349 861 m 1,0,-1
 446 549 l 1,1,-1
 1349 237 l 1,2,-1
 1349 70 l 1,3,-1
 195 468 l 1,4,-1
 195 632 l 1,5,-1
 1349 1031 l 1,6,-1
 1349 861 l 1,0,-1
EndSplineSet
Validated: 1
EndChar

StartChar: equal
Encoding: 24 61 24
Width: 1544
VWidth: 0
GlyphClass: 2
Flags: W
HStem: 294 161<195 1349> 644 161<195 1349>
LayerCount: 2
Fore
SplineSet
195 805 m 1,0,-1
 1349 805 l 1,1,-1
 1349 644 l 1,2,-1
 195 644 l 1,3,-1
 195 805 l 1,0,-1
195 455 m 1,4,-1
 1349 455 l 1,5,-1
 1349 294 l 1,6,-1
 195 294 l 1,7,-1
 195 455 l 1,4,-1
EndSplineSet
Validated: 1
EndChar

StartChar: greater
Encoding: 25 62 25
Width: 1544
VWidth: 0
GlyphClass: 2
Flags: W
DStem2: 195 1031 195 864 0.945103 -0.326773<54.5711 1015.33> 195 237 195 70 0.945356 0.326041<0 960.434>
LayerCount: 2
Fore
SplineSet
195 864 m 1,0,-1
 195 1031 l 1,1,-1
 1349 632 l 1,2,-1
 1349 468 l 1,3,-1
 195 70 l 1,4,-1
 195 237 l 1,5,-1
 1103 550 l 1,6,-1
 195 864 l 1,0,-1
EndSplineSet
Validated: 1
EndChar

StartChar: question
Encoding: 26 63 26
Width: 1003
VWidth: 0
GlyphClass: 2
Flags: W
HStem: -25 267<367.098 536.387> 997 213<125 222.638> 1204 99<312.822 631.297>
VStem: 125 88<997 1103.84> 331 242<15.2227 201.777> 396 111<371 587.869> 723 191<801.431 1113.02>
LayerCount: 2
Fore
SplineSet
331 108 m 256,0,1
 331 164 331 164 366 203 c 128,-1,2
 401 242 401 242 453 242 c 0,3,4
 503 242 503 242 538 203 c 128,-1,5
 573 164 573 164 573 108 c 0,6,7
 573 53 573 53 537.5 14 c 128,-1,8
 502 -25 502 -25 453 -25 c 0,9,10
 401 -25 401 -25 366 13.5 c 128,-1,11
 331 52 331 52 331 108 c 256,0,1
125 1210 m 1,12,13
 222 1257 222 1257 310 1280 c 128,-1,14
 398 1303 398 1303 475 1303 c 0,15,16
 679 1303 679 1303 796.5 1213.5 c 128,-1,17
 914 1124 914 1124 914 973 c 0,18,19
 914 818 914 818 813 719 c 128,-1,20
 712 620 712 620 507 578 c 1,21,-1
 507 371 l 1,22,-1
 396 371 l 1,23,-1
 396 638 l 1,24,25
 559 673 559 673 641 755 c 128,-1,26
 723 837 723 837 723 964 c 0,27,28
 723 1075 723 1075 655.5 1139.5 c 128,-1,29
 588 1204 588 1204 472 1204 c 0,30,31
 367 1204 367 1204 300 1150.5 c 128,-1,32
 233 1097 233 1097 213 997 c 1,33,-1
 125 997 l 1,34,-1
 125 1210 l 1,12,13
EndSplineSet
Validated: 1
EndChar

StartChar: at
Encoding: 27 64 27
Width: 1846
VWidth: 0
GlyphClass: 2
Flags: W
HStem: -314 105<710.317 1210.58> 64 118<794.719 1056.9> 736 118<794.348 1057.59> 1138 106<712.249 1237.58>
VStem: 122 154<206.914 719.532> 542 162<276.897 641.103> 1166 142<174 219 270.496 648.161 699 834> 1630 86<378.725 780.085>
LayerCount: 2
Fore
SplineSet
1166 219 m 1,0,1
 1113 140 1113 140 1047 102 c 128,-1,2
 981 64 981 64 897 64 c 0,3,4
 739 64 739 64 640.5 173.5 c 128,-1,5
 542 283 542 283 542 459 c 256,6,7
 542 635 542 635 640.5 744.5 c 128,-1,8
 739 854 739 854 897 854 c 0,9,10
 981 854 981 854 1047 816 c 0,11,12
 1112 777 1112 777 1166 699 c 1,13,-1
 1166 834 l 1,14,-1
 1308 834 l 1,15,-1
 1308 174 l 1,16,17
 1461 205 1461 205 1545.5 310.5 c 128,-1,18
 1630 416 1630 416 1630 575 c 0,19,20
 1630 669 1630 669 1599 752.5 c 128,-1,21
 1568 836 1568 836 1508 907 c 0,22,23
 1413 1019 1413 1019 1275.5 1078.5 c 128,-1,24
 1138 1138 1138 1138 976 1138 c 0,25,26
 895 1138 895 1138 816 1122 c 128,-1,27
 737 1106 737 1106 659 1073 c 0,28,29
 477 994 477 994 376.5 834 c 128,-1,30
 276 674 276 674 276 465 c 0,31,32
 276 323 276 323 321 205 c 128,-1,33
 366 87 366 87 451 0 c 0,34,35
 549 -101 549 -101 684 -155 c 128,-1,36
 819 -209 819 -209 975 -209 c 0,37,38
 1091 -209 1091 -209 1192 -178.5 c 128,-1,39
 1293 -148 1293 -148 1379 -86 c 1,40,-1
 1427 -143 l 1,41,42
 1330 -229 1330 -229 1206.5 -271.5 c 128,-1,43
 1083 -314 1083 -314 936 -314 c 0,44,45
 771 -314 771 -314 620.5 -256.5 c 128,-1,46
 470 -199 470 -199 358 -92 c 0,47,48
 242 18 242 18 182 159.5 c 128,-1,49
 122 301 122 301 122 465 c 0,50,51
 122 624 122 624 182 765.5 c 128,-1,52
 242 907 242 907 358 1017 c 0,53,54
 473 1126 473 1126 628 1185 c 128,-1,55
 783 1244 783 1244 958 1244 c 0,56,57
 1151 1244 1151 1244 1310 1173 c 128,-1,58
 1469 1102 1469 1102 1577 968 c 0,59,60
 1646 884 1646 884 1681 785.5 c 128,-1,61
 1716 687 1716 687 1716 580 c 0,62,63
 1716 350 1716 350 1568.5 215.5 c 128,-1,64
 1421 81 1421 81 1166 81 c 1,65,-1
 1166 219 l 1,0,1
1166 416 m 2,66,-1
 1166 503 l 2,67,68
 1166 607 1166 607 1102 671.5 c 128,-1,69
 1038 736 1038 736 934 736 c 0,70,71
 825 736 825 736 764.5 663.5 c 128,-1,72
 704 591 704 591 704 459 c 128,-1,73
 704 327 704 327 765 254.5 c 128,-1,74
 826 182 826 182 936 182 c 0,75,76
 1039 182 1039 182 1102.5 247 c 128,-1,77
 1166 312 1166 312 1166 416 c 2,66,-1
EndSplineSet
Validated: 1
EndChar

StartChar: A
Encoding: 28 65 28
Width: 1369
VWidth: 0
GlyphClass: 2
Flags: W
HStem: 0 106<-11 107 223 366 871 1042 1255 1387> 362 108<375 884> 1260 20G<588.652 752.705>
DStem2: 107 106 223 106 0.385173 0.922844<44.6801 322.142 439.142 1085.99> 744 1280 624 1067 0.399097 -0.916909<147.41 798.57 916.353 1195.38>
LayerCount: 2
Fore
SplineSet
375 470 m 1,0,-1
 884 470 l 1,1,-1
 624 1067 l 1,2,-1
 375 470 l 1,0,-1
-11 0 m 1,3,-1
 -11 106 l 1,4,-1
 107 106 l 1,5,-1
 597 1280 l 1,6,-1
 744 1280 l 1,7,-1
 1255 106 l 1,8,-1
 1387 106 l 1,9,-1
 1387 0 l 1,10,-1
 871 0 l 1,11,-1
 871 106 l 1,12,-1
 1042 106 l 1,13,-1
 931 362 l 1,14,-1
 330 362 l 1,15,-1
 223 106 l 1,16,-1
 366 106 l 1,17,-1
 366 0 l 1,18,-1
 -11 0 l 1,3,-1
EndSplineSet
Validated: 1
EndChar

StartChar: B
Encoding: 29 66 29
Width: 1364
VWidth: 0
GlyphClass: 2
Flags: W
HStem: 0 106<102 273 457 936.879> 638 107<457 895.724> 1173 107<102 273 457 894.657>
VStem: 273 184<106 638 745 1173> 976 208<820.124 1098.2> 1044 208<204.56 538.518>
LayerCount: 2
Fore
SplineSet
457 106 m 1,0,-1
 729 106 l 2,1,2
 893 106 893 106 968.5 170 c 128,-1,3
 1044 234 1044 234 1044 373 c 0,4,5
 1044 511 1044 511 969 574.5 c 128,-1,6
 894 638 894 638 729 638 c 2,7,-1
 457 638 l 1,8,-1
 457 106 l 1,0,-1
457 745 m 1,9,-1
 688 745 l 2,10,11
 838 745 838 745 907 796.5 c 128,-1,12
 976 848 976 848 976 959 c 0,13,14
 976 1071 976 1071 907 1122 c 128,-1,15
 838 1173 838 1173 688 1173 c 2,16,-1
 457 1173 l 1,17,-1
 457 745 l 1,9,-1
102 0 m 1,18,-1
 102 106 l 1,19,-1
 273 106 l 1,20,-1
 273 1173 l 1,21,-1
 102 1173 l 1,22,-1
 102 1280 l 1,23,-1
 771 1280 l 2,24,25
 976 1280 976 1280 1080 1200.5 c 128,-1,26
 1184 1121 1184 1121 1184 963 c 0,27,28
 1184 849 1184 849 1112 781 c 128,-1,29
 1040 713 1040 713 901 698 c 1,30,31
 1073 677 1073 677 1162.5 593.5 c 128,-1,32
 1252 510 1252 510 1252 370 c 0,33,34
 1252 180 1252 180 1125 90 c 128,-1,35
 998 0 998 0 728 0 c 2,36,-1
 102 0 l 1,18,-1
EndSplineSet
Validated: 1
EndChar

StartChar: C
Encoding: 30 67 30
Width: 1413
VWidth: 0
GlyphClass: 2
Flags: W
HStem: -25 107<538.983 955.626> 1196 107<539.834 979.115>
VStem: 104 208<373.092 903.016> 1162 102<891 1016.24>
LayerCount: 2
Fore
SplineSet
1302 347 m 1,0,1
 1242 164 1242 164 1102 69.5 c 128,-1,2
 962 -25 962 -25 748 -25 c 0,3,4
 616 -25 616 -25 503 18 c 128,-1,5
 390 61 390 61 303 144 c 0,6,7
 202 240 202 240 153 362 c 128,-1,8
 104 484 104 484 104 639 c 0,9,10
 104 937 104 937 285 1120 c 128,-1,11
 466 1303 466 1303 762 1303 c 0,12,13
 872 1303 872 1303 996 1272 c 128,-1,14
 1120 1241 1120 1241 1264 1178 c 1,15,-1
 1264 891 l 1,16,-1
 1162 891 l 1,17,18
 1129 1048 1129 1048 1029 1122 c 128,-1,19
 929 1196 929 1196 748 1196 c 0,20,21
 533 1196 533 1196 422.5 1054.5 c 128,-1,22
 312 913 312 913 312 639 c 128,-1,23
 312 365 312 365 422.5 223.5 c 128,-1,24
 533 82 533 82 748 82 c 0,25,26
 898 82 898 82 995 148.5 c 128,-1,27
 1092 215 1092 215 1136 347 c 1,28,-1
 1302 347 l 1,0,1
EndSplineSet
Validated: 1
EndChar

StartChar: D
Encoding: 31 68 31
Width: 1479
VWidth: 0
GlyphClass: 2
Flags: W
HStem: 0 106<102 273 457 875.875> 1173 107<102 273 457 876.414>
VStem: 273 184<106 1173> 1166 208<387.775 893.574>
LayerCount: 2
Fore
SplineSet
457 106 m 1,0,-1
 624 106 l 2,1,2
 886 106 886 106 1026 244.5 c 128,-1,3
 1166 383 1166 383 1166 641 c 256,4,5
 1166 899 1166 899 1026.5 1036 c 128,-1,6
 887 1173 887 1173 624 1173 c 2,7,-1
 457 1173 l 1,8,-1
 457 106 l 1,0,-1
102 0 m 1,9,-1
 102 106 l 1,10,-1
 273 106 l 1,11,-1
 273 1173 l 1,12,-1
 102 1173 l 1,13,-1
 102 1280 l 1,14,-1
 637 1280 l 2,15,16
 985 1280 985 1280 1179.5 1111 c 128,-1,17
 1374 942 1374 942 1374 641 c 0,18,19
 1374 339 1374 339 1179 169.5 c 128,-1,20
 984 0 984 0 637 0 c 2,21,-1
 102 0 l 1,9,-1
EndSplineSet
Validated: 1
EndChar

StartChar: E
Encoding: 32 69 32
Width: 1348
VWidth: 0
GlyphClass: 2
Flags: W
HStem: 0 123<457 1090> 0 106<102 273> 630 123<457 897> 1157 123<457 1075> 1173 107<102 273>
VStem: 273 184<123 630 753 1157> 897 111<478 630 753 904> 1075 111<988 1157> 1090 111<123 293>
LayerCount: 2
Fore
SplineSet
102 0 m 1,0,-1
 102 106 l 1,1,-1
 273 106 l 1,2,-1
 273 1173 l 1,3,-1
 102 1173 l 1,4,-1
 102 1280 l 1,5,-1
 1186 1280 l 1,6,-1
 1186 988 l 1,7,-1
 1075 988 l 1,8,-1
 1075 1157 l 1,9,-1
 457 1157 l 1,10,-1
 457 753 l 1,11,-1
 897 753 l 1,12,-1
 897 904 l 1,13,-1
 1008 904 l 1,14,-1
 1008 478 l 1,15,-1
 897 478 l 1,16,-1
 897 630 l 1,17,-1
 457 630 l 1,18,-1
 457 123 l 1,19,-1
 1090 123 l 1,20,-1
 1090 293 l 1,21,-1
 1201 293 l 1,22,-1
 1201 0 l 1,23,-1
 102 0 l 1,0,-1
EndSplineSet
Validated: 1
EndChar

StartChar: F
Encoding: 33 70 33
Width: 1281
VWidth: 0
GlyphClass: 2
Flags: W
HStem: 0 106<102 273 457 672> 629 123<457 916> 1157 123<457 1093> 1173 107<102 273>
VStem: 273 184<106 629 752 1157> 916 111<477 629 752 903> 1093 111<988 1157>
LayerCount: 2
Fore
SplineSet
102 0 m 1,0,-1
 102 106 l 1,1,-1
 273 106 l 1,2,-1
 273 1173 l 1,3,-1
 102 1173 l 1,4,-1
 102 1280 l 1,5,-1
 1204 1280 l 1,6,-1
 1204 988 l 1,7,-1
 1093 988 l 1,8,-1
 1093 1157 l 1,9,-1
 457 1157 l 1,10,-1
 457 752 l 1,11,-1
 916 752 l 1,12,-1
 916 903 l 1,13,-1
 1027 903 l 1,14,-1
 1027 477 l 1,15,-1
 916 477 l 1,16,-1
 916 629 l 1,17,-1
 457 629 l 1,18,-1
 457 106 l 1,19,-1
 672 106 l 1,20,-1
 672 0 l 1,21,-1
 102 0 l 1,0,-1
EndSplineSet
Validated: 1
EndChar

StartChar: G
Encoding: 34 71 34
Width: 1475
VWidth: 0
GlyphClass: 2
Flags: W
HStem: -25 107<554.956 1041.11> 487 108<894 1146> 1196 107<549.804 1002.75>
VStem: 104 208<373.733 903.361> 1146 184<151.875 487> 1182 102<895 1021.69>
LayerCount: 2
Fore
SplineSet
1182 895 m 1,0,1
 1151 1049 1151 1049 1050.5 1122.5 c 128,-1,2
 950 1196 950 1196 772 1196 c 0,3,4
 540 1196 540 1196 426 1057.5 c 128,-1,5
 312 919 312 919 312 639 c 0,6,7
 312 364 312 364 429.5 223 c 128,-1,8
 547 82 547 82 776 82 c 0,9,10
 878 82 878 82 970 105 c 128,-1,11
 1062 128 1062 128 1146 173 c 1,12,-1
 1146 487 l 1,13,-1
 894 487 l 1,14,-1
 894 595 l 1,15,-1
 1330 595 l 1,16,-1
 1330 120 l 1,17,18
 1210 47 1210 47 1072 11 c 128,-1,19
 934 -25 934 -25 776 -25 c 0,20,21
 471 -25 471 -25 287.5 156.5 c 128,-1,22
 104 338 104 338 104 639 c 0,23,24
 104 942 104 942 288 1122.5 c 128,-1,25
 472 1303 472 1303 783 1303 c 0,26,27
 898 1303 898 1303 1022 1274 c 128,-1,28
 1146 1245 1146 1245 1284 1186 c 1,29,-1
 1284 895 l 1,30,-1
 1182 895 l 1,0,1
EndSplineSet
Validated: 1
EndChar

StartChar: H
Encoding: 35 72 35
Width: 1610
VWidth: 0
GlyphClass: 2
Flags: W
HStem: 0 106<102 273 457 628 983 1154 1338 1509> 630 123<457 1154> 1173 107<102 273 457 628 983 1154 1338 1509>
VStem: 273 184<106 630 753 1173> 1154 184<106 630 753 1173>
LayerCount: 2
Fore
SplineSet
102 0 m 1,0,-1
 102 106 l 1,1,-1
 273 106 l 1,2,-1
 273 1173 l 1,3,-1
 102 1173 l 1,4,-1
 102 1280 l 1,5,-1
 628 1280 l 1,6,-1
 628 1173 l 1,7,-1
 457 1173 l 1,8,-1
 457 753 l 1,9,-1
 1154 753 l 1,10,-1
 1154 1173 l 1,11,-1
 983 1173 l 1,12,-1
 983 1280 l 1,13,-1
 1509 1280 l 1,14,-1
 1509 1173 l 1,15,-1
 1338 1173 l 1,16,-1
 1338 106 l 1,17,-1
 1509 106 l 1,18,-1
 1509 0 l 1,19,-1
 983 0 l 1,20,-1
 983 106 l 1,21,-1
 1154 106 l 1,22,-1
 1154 630 l 1,23,-1
 457 630 l 1,24,-1
 457 106 l 1,25,-1
 628 106 l 1,26,-1
 628 0 l 1,27,-1
 102 0 l 1,0,-1
EndSplineSet
Validated: 1
EndChar

StartChar: I
Encoding: 36 73 36
Width: 729
VWidth: 0
GlyphClass: 2
Flags: W
HStem: 0 106<102 273 457 628> 1173 107<102 273 457 628>
VStem: 273 184<106 1173>
LayerCount: 2
Fore
SplineSet
457 106 m 1,0,-1
 628 106 l 1,1,-1
 628 0 l 1,2,-1
 102 0 l 1,3,-1
 102 106 l 1,4,-1
 273 106 l 1,5,-1
 273 1173 l 1,6,-1
 102 1173 l 1,7,-1
 102 1280 l 1,8,-1
 628 1280 l 1,9,-1
 628 1173 l 1,10,-1
 457 1173 l 1,11,-1
 457 106 l 1,0,-1
EndSplineSet
Validated: 1
EndChar

StartChar: J
Encoding: 37 74 37
Width: 740
VWidth: 0
GlyphClass: 2
Flags: W
HStem: -365 107<-7.52789 242.443> -297 235<-155 -52> 1173 107<92 301 485 656>
VStem: -155 103<-207.972 -62> 301 184<-196.953 1173>
LayerCount: 2
Fore
SplineSet
-155 -297 m 1,0,-1
 -155 -62 l 1,1,-1
 -52 -62 l 1,2,3
 -52 -161 -52 -161 -11 -209.5 c 128,-1,4
 30 -258 30 -258 109 -258 c 0,5,6
 216 -258 216 -258 258.5 -195 c 128,-1,7
 301 -132 301 -132 301 51 c 2,8,-1
 301 1173 l 1,9,-1
 92 1173 l 1,10,-1
 92 1280 l 1,11,-1
 656 1280 l 1,12,-1
 656 1173 l 1,13,-1
 485 1173 l 1,14,-1
 485 31 l 2,15,16
 485 -179 485 -179 395.5 -272 c 128,-1,17
 306 -365 306 -365 108 -365 c 0,18,19
 44 -365 44 -365 -22.5 -348 c 128,-1,20
 -89 -331 -89 -331 -155 -297 c 1,0,-1
EndSplineSet
Validated: 1
EndChar

StartChar: K
Encoding: 38 75 38
Width: 1412
VWidth: 0
GlyphClass: 2
Flags: W
HStem: 0 106<102 273 457 632 1287 1440> 1173 107<102 273 457 632 901 1045 1213 1364>
VStem: 273 184<106 600 707 1173>
DStem2: 457 707 623 705 0.783453 0.621451<128.81 750.267> 623 705 457 600 0.742461 -0.669889<0 842.76>
LayerCount: 2
Fore
SplineSet
102 0 m 1,0,-1
 102 106 l 1,1,-1
 273 106 l 1,2,-1
 273 1173 l 1,3,-1
 102 1173 l 1,4,-1
 102 1280 l 1,5,-1
 632 1280 l 1,6,-1
 632 1173 l 1,7,-1
 457 1173 l 1,8,-1
 457 707 l 1,9,-1
 1045 1173 l 1,10,-1
 901 1173 l 1,11,-1
 901 1280 l 1,12,-1
 1364 1280 l 1,13,-1
 1364 1173 l 1,14,-1
 1213 1173 l 1,15,-1
 623 705 l 1,16,-1
 1287 106 l 1,17,-1
 1440 106 l 1,18,-1
 1440 0 l 1,19,-1
 1122 0 l 1,20,-1
 457 600 l 1,21,-1
 457 106 l 1,22,-1
 632 106 l 1,23,-1
 632 0 l 1,24,-1
 102 0 l 1,0,-1
EndSplineSet
Validated: 1
EndChar

StartChar: L
Encoding: 39 76 39
Width: 1225
VWidth: 0
GlyphClass: 2
Flags: W
HStem: 0 123<457 1071> 0 106<102 273> 1173 107<102 273 457 628>
VStem: 273 184<123 1173> 1071 111<123 331>
LayerCount: 2
Fore
SplineSet
102 0 m 1,0,-1
 102 106 l 1,1,-1
 273 106 l 1,2,-1
 273 1173 l 1,3,-1
 102 1173 l 1,4,-1
 102 1280 l 1,5,-1
 628 1280 l 1,6,-1
 628 1173 l 1,7,-1
 457 1173 l 1,8,-1
 457 123 l 1,9,-1
 1071 123 l 1,10,-1
 1071 331 l 1,11,-1
 1182 331 l 1,12,-1
 1182 0 l 1,13,-1
 102 0 l 1,0,-1
EndSplineSet
Validated: 1
EndChar

StartChar: M
Encoding: 40 77 40
Width: 1920
VWidth: 0
GlyphClass: 2
Flags: W
HStem: 0 106<102 273 384 560 1288 1464 1648 1820> 1173 107<92 273 1648 1827>
VStem: 273 111<106 1077> 1464 184<106 1042>
DStem2: 486 1280 384 1077 0.480493 -0.876998<129.02 1023.95> 978 382 982 182 0.489431 0.872042<0 813.411>
LayerCount: 2
Fore
SplineSet
102 0 m 1,0,-1
 102 106 l 1,1,-1
 273 106 l 1,2,-1
 273 1173 l 1,3,-1
 92 1173 l 1,4,-1
 92 1280 l 1,5,-1
 486 1280 l 1,6,-1
 978 382 l 1,7,-1
 1482 1280 l 1,8,-1
 1827 1280 l 1,9,-1
 1827 1173 l 1,10,-1
 1648 1173 l 1,11,-1
 1648 106 l 1,12,-1
 1820 106 l 1,13,-1
 1820 0 l 1,14,-1
 1288 0 l 1,15,-1
 1288 106 l 1,16,-1
 1464 106 l 1,17,-1
 1464 1042 l 1,18,-1
 982 182 l 1,19,-1
 874 182 l 1,20,-1
 384 1077 l 1,21,-1
 384 106 l 1,22,-1
 560 106 l 1,23,-1
 560 0 l 1,24,-1
 102 0 l 1,0,-1
EndSplineSet
Validated: 1
EndChar

StartChar: N
Encoding: 41 78 41
Width: 1637
VWidth: 0
GlyphClass: 2
Flags: W
HStem: -25 21G<1266.14 1375> 0 106<90 271 382 568> 1173 107<90 271 1079 1264 1375 1556>
VStem: 271 111<106 1044> 1264 111<299 1173>
DStem2: 437 1280 382 1044 0.644466 -0.764633<145.008 1283.08>
LayerCount: 2
Fore
SplineSet
90 0 m 1,0,-1
 90 106 l 1,1,-1
 271 106 l 1,2,-1
 271 1173 l 1,3,-1
 90 1173 l 1,4,-1
 90 1280 l 1,5,-1
 437 1280 l 1,6,-1
 1264 299 l 1,7,-1
 1264 1173 l 1,8,-1
 1079 1173 l 1,9,-1
 1079 1280 l 1,10,-1
 1556 1280 l 1,11,-1
 1556 1173 l 1,12,-1
 1375 1173 l 1,13,-1
 1375 -25 l 1,14,-1
 1283 -25 l 1,15,-1
 382 1044 l 1,16,-1
 382 106 l 1,17,-1
 568 106 l 1,18,-1
 568 0 l 1,19,-1
 90 0 l 1,0,-1
EndSplineSet
Validated: 1
EndChar

StartChar: O
Encoding: 42 79 42
Width: 1514
VWidth: 0
GlyphClass: 2
Flags: W
HStem: -25 107<544.772 972.864> 1196 107<544.458 970.692>
VStem: 104 208<372.495 902.42> 1204 208<377.851 903.975>
LayerCount: 2
Fore
SplineSet
758 82 m 128,-1,1
 979 82 979 82 1091.5 222.5 c 128,-1,2
 1204 363 1204 363 1204 639 c 128,-1,3
 1204 915 1204 915 1091 1055.5 c 128,-1,4
 978 1196 978 1196 758 1196 c 0,5,6
 537 1196 537 1196 424.5 1055.5 c 128,-1,7
 312 915 312 915 312 639 c 0,8,9
 312 364 312 364 424.5 223 c 128,-1,0
 537 82 537 82 758 82 c 128,-1,1
758 -25 m 0,10,11
 621 -25 621 -25 505.5 18 c 128,-1,12
 390 61 390 61 303 144 c 0,13,14
 202 240 202 240 153 361.5 c 128,-1,15
 104 483 104 483 104 639 c 256,16,17
 104 794 104 794 153 916 c 0,18,19
 202 1037 202 1037 303 1134 c 0,20,21
 391 1218 391 1218 505 1260 c 0,22,23
 620 1303 620 1303 758 1303 c 0,24,25
 1051 1303 1051 1303 1231.5 1120.5 c 128,-1,26
 1412 938 1412 938 1412 639 c 0,27,28
 1412 486 1412 486 1362 362.5 c 128,-1,29
 1312 239 1312 239 1211 144 c 0,30,31
 1123 60 1123 60 1009.5 17.5 c 128,-1,32
 896 -25 896 -25 758 -25 c 0,10,11
EndSplineSet
Validated: 1
EndChar

StartChar: P
Encoding: 43 80 43
Width: 1242
VWidth: 0
GlyphClass: 2
Flags: W
HStem: 0 106<102 273 457 665> 552 108<457 867.949> 1173 107<102 273 457 867.008>
VStem: 273 184<106 552 660 1173> 969 208<756.87 1075.93>
LayerCount: 2
Fore
SplineSet
457 660 m 1,0,-1
 694 660 l 2,1,2
 828 660 828 660 898.5 726 c 128,-1,3
 969 792 969 792 969 916 c 0,4,5
 969 1041 969 1041 898.5 1107 c 128,-1,6
 828 1173 828 1173 694 1173 c 2,7,-1
 457 1173 l 1,8,-1
 457 660 l 1,0,-1
102 0 m 1,9,-1
 102 106 l 1,10,-1
 273 106 l 1,11,-1
 273 1173 l 1,12,-1
 102 1173 l 1,13,-1
 102 1280 l 1,14,-1
 738 1280 l 2,15,16
 940 1280 940 1280 1058.5 1181.5 c 128,-1,17
 1177 1083 1177 1083 1177 916 c 0,18,19
 1177 750 1177 750 1059 651 c 128,-1,20
 941 552 941 552 739 552 c 2,21,-1
 457 552 l 1,22,-1
 457 106 l 1,23,-1
 665 106 l 1,24,-1
 665 0 l 1,25,-1
 102 0 l 1,9,-1
EndSplineSet
Validated: 1
EndChar

StartChar: Q
Encoding: 44 81 44
Width: 1514
VWidth: 0
GlyphClass: 2
Flags: W
HStem: -281 185<998.717 1217> -25 107<549.085 806.924> 1196 107<544.458 970.692>
VStem: 104 208<373.117 902.42> 1204 208<379.247 904.108>
LayerCount: 2
Fore
SplineSet
780 -25 m 1,0,1
 470 -25 470 -25 287 155.5 c 128,-1,2
 104 336 104 336 104 639 c 0,3,4
 104 794 104 794 153 916 c 0,5,6
 202 1037 202 1037 303 1134 c 0,7,8
 391 1218 391 1218 505 1260 c 0,9,10
 620 1303 620 1303 758 1303 c 0,11,12
 1051 1303 1051 1303 1231.5 1120.5 c 128,-1,13
 1412 938 1412 938 1412 640 c 0,14,15
 1412 387 1412 387 1276.5 214.5 c 128,-1,16
 1141 42 1141 42 903 -8 c 1,17,18
 952 -53 952 -53 1021.5 -74.5 c 128,-1,19
 1091 -96 1091 -96 1189 -96 c 2,20,-1
 1217 -96 l 1,21,-1
 1217 -281 l 1,22,23
 1065 -281 1065 -281 956.5 -214 c 128,-1,24
 848 -147 848 -147 780 -25 c 1,0,1
758 82 m 128,-1,26
 979 82 979 82 1091.5 222.5 c 128,-1,27
 1204 363 1204 363 1204 639 c 128,-1,28
 1204 915 1204 915 1091 1055.5 c 128,-1,29
 978 1196 978 1196 758 1196 c 0,30,31
 537 1196 537 1196 424.5 1055.5 c 128,-1,32
 312 915 312 915 312 639 c 0,33,34
 312 364 312 364 424.5 223 c 128,-1,25
 537 82 537 82 758 82 c 128,-1,26
EndSplineSet
Validated: 1
EndChar

StartChar: R
Encoding: 45 82 45
Width: 1394
VWidth: 0
GlyphClass: 2
Flags: W
HStem: 0 106<102 273 457 648 1275 1439> 586 108<457 790.428> 1173 107<102 273 457 906.699>
VStem: 273 184<106 586 694 1173> 992 208<775.832 1091.57>
DStem2: 1078 468 902 407 0.477187 -0.878802<-181.799 412.132>
LayerCount: 2
Fore
SplineSet
887 632 m 1,0,1
 950 616 950 616 996 577 c 128,-1,2
 1042 538 1042 538 1078 468 c 2,3,-1
 1275 106 l 1,4,-1
 1439 106 l 1,5,-1
 1439 0 l 1,6,-1
 1123 0 l 1,7,-1
 902 407 l 2,8,9
 842 520 842 520 792 553 c 128,-1,10
 742 586 742 586 655 586 c 2,11,-1
 457 586 l 1,12,-1
 457 106 l 1,13,-1
 648 106 l 1,14,-1
 648 0 l 1,15,-1
 102 0 l 1,16,-1
 102 106 l 1,17,-1
 273 106 l 1,18,-1
 273 1173 l 1,19,-1
 102 1173 l 1,20,-1
 102 1280 l 1,21,-1
 787 1280 l 2,22,23
 984 1280 984 1280 1092 1190.5 c 128,-1,24
 1200 1101 1200 1101 1200 936 c 0,25,26
 1200 803 1200 803 1121 727 c 128,-1,27
 1042 651 1042 651 887 632 c 1,0,1
457 694 m 1,28,-1
 724 694 l 2,29,30
 861 694 861 694 926.5 752.5 c 128,-1,31
 992 811 992 811 992 934 c 256,32,33
 992 1057 992 1057 926.5 1115 c 128,-1,34
 861 1173 861 1173 724 1173 c 2,35,-1
 457 1173 l 1,36,-1
 457 694 l 1,28,-1
EndSplineSet
Validated: 1
EndChar

StartChar: S
Encoding: 46 83 46
Width: 1264
VWidth: 0
GlyphClass: 2
Flags: W
HStem: -25 107<397.376 843.811> 1196 107<418.078 841.222>
VStem: 155 177<868.616 1117.47> 171 104<194.104 360> 949 181<173.713 431.144> 960 102<946 1082.48>
DStem2: 624 761 506 578 0.963752 -0.266801<-251.697 348.428>
LayerCount: 2
Fore
SplineSet
171 76 m 1,0,-1
 171 360 l 1,1,-1
 275 360 l 1,2,3
 275 218 275 218 361.5 150 c 128,-1,4
 448 82 448 82 620 82 c 0,5,6
 780 82 780 82 864.5 138.5 c 128,-1,7
 949 195 949 195 949 304 c 0,8,9
 949 391 949 391 898 437.5 c 128,-1,10
 847 484 847 484 683 529 c 2,11,-1
 506 578 l 2,12,13
 313 635 313 635 234 720 c 128,-1,14
 155 805 155 805 155 956 c 0,15,16
 155 1121 155 1121 276 1211 c 0,17,18
 400 1303 400 1303 618 1303 c 0,19,20
 712 1303 712 1303 824 1280.5 c 128,-1,21
 936 1258 936 1258 1062 1215 c 1,22,-1
 1062 946 l 1,23,-1
 960 946 l 1,24,25
 945 1078 945 1078 865 1137 c 128,-1,26
 785 1196 785 1196 622 1196 c 0,27,28
 480 1196 480 1196 406 1144 c 128,-1,29
 332 1092 332 1092 332 993 c 0,30,31
 332 907 332 907 387.5 858 c 128,-1,32
 443 809 443 809 624 761 c 2,33,-1
 791 715 l 2,34,35
 974 662 974 662 1052 579 c 128,-1,36
 1130 496 1130 496 1130 357 c 0,37,38
 1130 167 1130 167 1004.5 71 c 128,-1,39
 879 -25 879 -25 631 -25 c 0,40,41
 520 -25 520 -25 405 0 c 128,-1,42
 290 25 290 25 171 76 c 1,0,-1
EndSplineSet
Validated: 1
EndChar

StartChar: T
Encoding: 47 84 47
Width: 1231
VWidth: 0
GlyphClass: 2
Flags: W
HStem: 0 106<352 524 707 879> 928 352<18 129 1102 1213> 1161 119<129 524 707 1102>
VStem: 18 111<928 1161> 524 183<106 1161> 1102 111<928 1161>
CounterMasks: 1 1c
LayerCount: 2
Fore
SplineSet
352 0 m 1,0,-1
 352 106 l 1,1,-1
 524 106 l 1,2,-1
 524 1161 l 1,3,-1
 129 1161 l 1,4,-1
 129 928 l 1,5,-1
 18 928 l 1,6,-1
 18 1280 l 1,7,-1
 1213 1280 l 1,8,-1
 1213 928 l 1,9,-1
 1102 928 l 1,10,-1
 1102 1161 l 1,11,-1
 707 1161 l 1,12,-1
 707 106 l 1,13,-1
 879 106 l 1,14,-1
 879 0 l 1,15,-1
 352 0 l 1,0,-1
EndSplineSet
Validated: 1
EndChar

StartChar: U
Encoding: 48 85 48
Width: 1555
VWidth: 0
GlyphClass: 2
Flags: W
HStem: -25 131<591.39 1041.89> 1173 107<86 258 441 613 1018 1190 1301 1472>
VStem: 258 183<263.524 1173> 1190 111<264.187 1173>
LayerCount: 2
Fore
SplineSet
258 1173 m 1,0,-1
 86 1173 l 1,1,-1
 86 1280 l 1,2,-1
 613 1280 l 1,3,-1
 613 1173 l 1,4,-1
 441 1173 l 1,5,-1
 441 531 l 2,6,7
 441 293 441 293 525.5 199.5 c 128,-1,8
 610 106 610 106 816 106 c 256,9,10
 1022 106 1022 106 1106 200 c 128,-1,11
 1190 294 1190 294 1190 531 c 2,12,-1
 1190 1173 l 1,13,-1
 1018 1173 l 1,14,-1
 1018 1280 l 1,15,-1
 1472 1280 l 1,16,-1
 1472 1173 l 1,17,-1
 1301 1173 l 1,18,-1
 1301 502 l 2,19,20
 1301 213 1301 213 1183 94 c 128,-1,21
 1065 -25 1065 -25 782 -25 c 256,22,23
 499 -25 499 -25 378.5 95 c 128,-1,24
 258 215 258 215 258 502 c 2,25,-1
 258 1173 l 1,0,-1
EndSplineSet
Validated: 1
EndChar

StartChar: V
Encoding: 49 86 49
Width: 1352
VWidth: 0
GlyphClass: 2
Flags: W
HStem: 0 21G<597.645 765.389> 1173 107<-18 116 329 474 978 1133 1249 1379>
DStem2: 329 1173 116 1173 0.385453 -0.922727<0 1042.23> 730 211 757 0 0.386791 0.922167<0 1043>
LayerCount: 2
Fore
SplineSet
329 1173 m 1,0,-1
 730 211 l 1,1,-1
 1133 1173 l 1,2,-1
 978 1173 l 1,3,-1
 978 1280 l 1,4,-1
 1379 1280 l 1,5,-1
 1379 1173 l 1,6,-1
 1249 1173 l 1,7,-1
 757 0 l 1,8,-1
 606 0 l 1,9,-1
 116 1173 l 1,10,-1
 -18 1173 l 1,11,-1
 -18 1280 l 1,12,-1
 474 1280 l 1,13,-1
 474 1173 l 1,14,-1
 329 1173 l 1,0,-1
EndSplineSet
Validated: 1
EndChar

StartChar: W
Encoding: 50 87 50
Width: 1944
VWidth: 0
GlyphClass: 2
Flags: W
HStem: 0 21G<499.794 661.366 1299.61 1449.21> 1173 107<9 142 336 510 1543 1706 1807 1939>
DStem2: 336 1173 142 1173 0.296374 -0.955072<0 981.147> 627 236 655 0 0.303053 0.952974<0 855.062> 1087 1280 980 1021 0.304342 -0.952563<214.149 1087.59> 1418 244 1443 0 0.296374 0.955072<0 972.618>
LayerCount: 2
Fore
SplineSet
1443 0 m 1,0,-1
 1306 0 l 1,1,-1
 980 1021 l 1,2,-1
 655 0 l 1,3,-1
 506 0 l 1,4,-1
 142 1173 l 1,5,-1
 9 1173 l 1,6,-1
 9 1280 l 1,7,-1
 510 1280 l 1,8,-1
 510 1173 l 1,9,-1
 336 1173 l 1,10,-1
 627 236 l 1,11,-1
 959 1280 l 1,12,-1
 1087 1280 l 1,13,-1
 1418 244 l 1,14,-1
 1706 1173 l 1,15,-1
 1543 1173 l 1,16,-1
 1543 1280 l 1,17,-1
 1939 1280 l 1,18,-1
 1939 1173 l 1,19,-1
 1807 1173 l 1,20,-1
 1443 0 l 1,0,-1
EndSplineSet
Validated: 1
EndChar

StartChar: X
Encoding: 51 88 51
Width: 1348
VWidth: 0
GlyphClass: 2
Flags: W
HStem: 0 106<11 166 291 453 777 948 1195 1339> 1173 107<13 157 404 549 809 996 1121 1273>
DStem2: 404 1173 157 1173 0.595534 -0.80333<0 485.408 642.115 1181.12> 166 106 291 106 0.613992 0.789312<76.749 624.822 857.938 1351.81>
LayerCount: 2
Fore
SplineSet
627 539 m 1,0,-1
 291 106 l 1,1,-1
 453 106 l 1,2,-1
 453 0 l 1,3,-1
 11 0 l 1,4,-1
 11 106 l 1,5,-1
 166 106 l 1,6,-1
 567 621 l 1,7,-1
 157 1173 l 1,8,-1
 13 1173 l 1,9,-1
 13 1280 l 1,10,-1
 549 1280 l 1,11,-1
 549 1173 l 1,12,-1
 404 1173 l 1,13,-1
 693 783 l 1,14,-1
 996 1173 l 1,15,-1
 809 1173 l 1,16,-1
 809 1280 l 1,17,-1
 1273 1280 l 1,18,-1
 1273 1173 l 1,19,-1
 1121 1173 l 1,20,-1
 754 701 l 1,21,-1
 1195 106 l 1,22,-1
 1339 106 l 1,23,-1
 1339 0 l 1,24,-1
 777 0 l 1,25,-1
 777 106 l 1,26,-1
 948 106 l 1,27,-1
 627 539 l 1,0,-1
EndSplineSet
Validated: 1
EndChar

StartChar: Y
Encoding: 52 89 52
Width: 1238
VWidth: 0
GlyphClass: 2
Flags: W
HStem: 0 106<350 529 712 887> 1173 107<-21 105 337 486 855 1010 1128 1255>
VStem: 529 183<106 564>
DStem2: 337 1173 105 1173 0.572646 -0.819803<0 593.944> 677 686 712 564 0.564052 0.825739<0 589.964>
LayerCount: 2
Fore
SplineSet
350 0 m 1,0,-1
 350 106 l 1,1,-1
 529 106 l 1,2,-1
 529 566 l 1,3,-1
 105 1173 l 1,4,-1
 -21 1173 l 1,5,-1
 -21 1280 l 1,6,-1
 486 1280 l 1,7,-1
 486 1173 l 1,8,-1
 337 1173 l 1,9,-1
 677 686 l 1,10,-1
 1010 1173 l 1,11,-1
 855 1173 l 1,12,-1
 855 1280 l 1,13,-1
 1255 1280 l 1,14,-1
 1255 1173 l 1,15,-1
 1128 1173 l 1,16,-1
 712 564 l 1,17,-1
 712 106 l 1,18,-1
 887 106 l 1,19,-1
 887 0 l 1,20,-1
 350 0 l 1,0,-1
EndSplineSet
Validated: 1
EndChar

StartChar: Z
Encoding: 53 90 53
Width: 1308
VWidth: 0
GlyphClass: 2
Flags: W
HStem: 0 123<365 1125> 1157 123<229 948>
VStem: 118 111<972 1157> 1125 111<123 296>
DStem2: 83 72 365 123 0.623376 0.781922<215.67 1387.61>
LayerCount: 2
Fore
SplineSet
83 0 m 1,0,-1
 83 72 l 1,1,-1
 948 1157 l 1,2,-1
 229 1157 l 1,3,-1
 229 972 l 1,4,-1
 118 972 l 1,5,-1
 118 1280 l 1,6,-1
 1230 1280 l 1,7,-1
 1230 1208 l 1,8,-1
 365 123 l 1,9,-1
 1125 123 l 1,10,-1
 1125 296 l 1,11,-1
 1236 296 l 1,12,-1
 1236 0 l 1,13,-1
 83 0 l 1,0,-1
EndSplineSet
Validated: 1
EndChar

StartChar: backslash
Encoding: 54 92 54
Width: 635
VWidth: 0
GlyphClass: 2
Flags: W
HStem: 1260 20G<0 151.777>
VStem: 0 635
DStem2: 145 1280 0 1280 0.32094 -0.9471<0 1480.23>
LayerCount: 2
Fore
SplineSet
145 1280 m 1,0,-1
 635 -166 l 1,1,-1
 490 -166 l 1,2,-1
 0 1280 l 1,3,-1
 145 1280 l 1,0,-1
EndSplineSet
Validated: 1
EndChar

StartChar: underscore
Encoding: 55 95 55
Width: 922
VWidth: 0
GlyphClass: 2
Flags: W
HStem: -421 81<0 922>
LayerCount: 2
Fore
SplineSet
922 -340 m 1,0,-1
 922 -421 l 1,1,-1
 0 -421 l 1,2,-1
 0 -340 l 1,3,-1
 922 -340 l 1,0,-1
EndSplineSet
Validated: 1
EndChar

StartChar: a
Encoding: 56 97 56
Width: 1369
VWidth: 0
GlyphClass: 2
Flags: W
HStem: 0 106<-11 107 223 366 871 1042 1255 1387> 362 108<375 884> 1260 20G<588.652 752.705>
DStem2: 107 106 223 106 0.385173 0.922844<44.6801 322.142 439.142 1085.99> 744 1280 624 1067 0.399097 -0.916909<147.41 798.57 916.353 1195.38>
LayerCount: 2
Fore
SplineSet
375 470 m 1,0,-1
 884 470 l 1,1,-1
 624 1067 l 1,2,-1
 375 470 l 1,0,-1
-11 0 m 1,3,-1
 -11 106 l 1,4,-1
 107 106 l 1,5,-1
 597 1280 l 1,6,-1
 744 1280 l 1,7,-1
 1255 106 l 1,8,-1
 1387 106 l 1,9,-1
 1387 0 l 1,10,-1
 871 0 l 1,11,-1
 871 106 l 1,12,-1
 1042 106 l 1,13,-1
 931 362 l 1,14,-1
 330 362 l 1,15,-1
 223 106 l 1,16,-1
 366 106 l 1,17,-1
 366 0 l 1,18,-1
 -11 0 l 1,3,-1
EndSplineSet
Validated: 1
EndChar

StartChar: b
Encoding: 57 98 57
Width: 1364
VWidth: 0
GlyphClass: 2
Flags: W
HStem: 0 106<102 273 457 936.879> 638 107<457 895.724> 1173 107<102 273 457 894.657>
VStem: 273 184<106 638 745 1173> 976 208<820.124 1098.2> 1044 208<204.56 538.518>
LayerCount: 2
Fore
SplineSet
457 106 m 1,0,-1
 729 106 l 2,1,2
 893 106 893 106 968.5 170 c 128,-1,3
 1044 234 1044 234 1044 373 c 0,4,5
 1044 511 1044 511 969 574.5 c 128,-1,6
 894 638 894 638 729 638 c 2,7,-1
 457 638 l 1,8,-1
 457 106 l 1,0,-1
457 745 m 1,9,-1
 688 745 l 2,10,11
 838 745 838 745 907 796.5 c 128,-1,12
 976 848 976 848 976 959 c 0,13,14
 976 1071 976 1071 907 1122 c 128,-1,15
 838 1173 838 1173 688 1173 c 2,16,-1
 457 1173 l 1,17,-1
 457 745 l 1,9,-1
102 0 m 1,18,-1
 102 106 l 1,19,-1
 273 106 l 1,20,-1
 273 1173 l 1,21,-1
 102 1173 l 1,22,-1
 102 1280 l 1,23,-1
 771 1280 l 2,24,25
 976 1280 976 1280 1080 1200.5 c 128,-1,26
 1184 1121 1184 1121 1184 963 c 0,27,28
 1184 849 1184 849 1112 781 c 128,-1,29
 1040 713 1040 713 901 698 c 1,30,31
 1073 677 1073 677 1162.5 593.5 c 128,-1,32
 1252 510 1252 510 1252 370 c 0,33,34
 1252 180 1252 180 1125 90 c 128,-1,35
 998 0 998 0 728 0 c 2,36,-1
 102 0 l 1,18,-1
EndSplineSet
Validated: 1
EndChar

StartChar: c
Encoding: 58 99 58
Width: 1413
VWidth: 0
GlyphClass: 2
Flags: W
HStem: -25 107<538.983 955.626> 1196 107<539.834 979.115>
VStem: 104 208<373.092 903.016> 1162 102<891 1016.24>
LayerCount: 2
Fore
SplineSet
1302 347 m 1,0,1
 1242 164 1242 164 1102 69.5 c 128,-1,2
 962 -25 962 -25 748 -25 c 0,3,4
 616 -25 616 -25 503 18 c 128,-1,5
 390 61 390 61 303 144 c 0,6,7
 202 240 202 240 153 362 c 128,-1,8
 104 484 104 484 104 639 c 0,9,10
 104 937 104 937 285 1120 c 128,-1,11
 466 1303 466 1303 762 1303 c 0,12,13
 872 1303 872 1303 996 1272 c 128,-1,14
 1120 1241 1120 1241 1264 1178 c 1,15,-1
 1264 891 l 1,16,-1
 1162 891 l 1,17,18
 1129 1048 1129 1048 1029 1122 c 128,-1,19
 929 1196 929 1196 748 1196 c 0,20,21
 533 1196 533 1196 422.5 1054.5 c 128,-1,22
 312 913 312 913 312 639 c 128,-1,23
 312 365 312 365 422.5 223.5 c 128,-1,24
 533 82 533 82 748 82 c 0,25,26
 898 82 898 82 995 148.5 c 128,-1,27
 1092 215 1092 215 1136 347 c 1,28,-1
 1302 347 l 1,0,1
EndSplineSet
Validated: 1
EndChar

StartChar: d
Encoding: 59 100 59
Width: 1479
VWidth: 0
GlyphClass: 2
Flags: W
HStem: 0 106<102 273 457 875.875> 1173 107<102 273 457 876.414>
VStem: 273 184<106 1173> 1166 208<387.775 893.574>
LayerCount: 2
Fore
SplineSet
457 106 m 1,0,-1
 624 106 l 2,1,2
 886 106 886 106 1026 244.5 c 128,-1,3
 1166 383 1166 383 1166 641 c 256,4,5
 1166 899 1166 899 1026.5 1036 c 128,-1,6
 887 1173 887 1173 624 1173 c 2,7,-1
 457 1173 l 1,8,-1
 457 106 l 1,0,-1
102 0 m 1,9,-1
 102 106 l 1,10,-1
 273 106 l 1,11,-1
 273 1173 l 1,12,-1
 102 1173 l 1,13,-1
 102 1280 l 1,14,-1
 637 1280 l 2,15,16
 985 1280 985 1280 1179.5 1111 c 128,-1,17
 1374 942 1374 942 1374 641 c 0,18,19
 1374 339 1374 339 1179 169.5 c 128,-1,20
 984 0 984 0 637 0 c 2,21,-1
 102 0 l 1,9,-1
EndSplineSet
Validated: 1
EndChar

StartChar: e
Encoding: 60 101 60
Width: 1348
VWidth: 0
GlyphClass: 2
Flags: W
HStem: 0 123<457 1090> 0 106<102 273> 630 123<457 897> 1157 123<457 1075> 1173 107<102 273>
VStem: 273 184<123 630 753 1157> 897 111<478 630 753 904> 1075 111<988 1157> 1090 111<123 293>
LayerCount: 2
Fore
SplineSet
102 0 m 1,0,-1
 102 106 l 1,1,-1
 273 106 l 1,2,-1
 273 1173 l 1,3,-1
 102 1173 l 1,4,-1
 102 1280 l 1,5,-1
 1186 1280 l 1,6,-1
 1186 988 l 1,7,-1
 1075 988 l 1,8,-1
 1075 1157 l 1,9,-1
 457 1157 l 1,10,-1
 457 753 l 1,11,-1
 897 753 l 1,12,-1
 897 904 l 1,13,-1
 1008 904 l 1,14,-1
 1008 478 l 1,15,-1
 897 478 l 1,16,-1
 897 630 l 1,17,-1
 457 630 l 1,18,-1
 457 123 l 1,19,-1
 1090 123 l 1,20,-1
 1090 293 l 1,21,-1
 1201 293 l 1,22,-1
 1201 0 l 1,23,-1
 102 0 l 1,0,-1
EndSplineSet
Validated: 1
EndChar

StartChar: f
Encoding: 61 102 61
Width: 1281
VWidth: 0
GlyphClass: 2
Flags: W
HStem: 0 106<102 273 457 672> 629 123<457 916> 1157 123<457 1093> 1173 107<102 273>
VStem: 273 184<106 629 752 1157> 916 111<477 629 752 903> 1093 111<988 1157>
LayerCount: 2
Fore
SplineSet
102 0 m 1,0,-1
 102 106 l 1,1,-1
 273 106 l 1,2,-1
 273 1173 l 1,3,-1
 102 1173 l 1,4,-1
 102 1280 l 1,5,-1
 1204 1280 l 1,6,-1
 1204 988 l 1,7,-1
 1093 988 l 1,8,-1
 1093 1157 l 1,9,-1
 457 1157 l 1,10,-1
 457 752 l 1,11,-1
 916 752 l 1,12,-1
 916 903 l 1,13,-1
 1027 903 l 1,14,-1
 1027 477 l 1,15,-1
 916 477 l 1,16,-1
 916 629 l 1,17,-1
 457 629 l 1,18,-1
 457 106 l 1,19,-1
 672 106 l 1,20,-1
 672 0 l 1,21,-1
 102 0 l 1,0,-1
EndSplineSet
Validated: 1
EndChar

StartChar: g
Encoding: 62 103 62
Width: 1475
VWidth: 0
GlyphClass: 2
Flags: W
HStem: -25 107<554.956 1041.11> 487 108<894 1146> 1196 107<549.804 1002.75>
VStem: 104 208<373.733 903.361> 1146 184<151.875 487> 1182 102<895 1021.69>
LayerCount: 2
Fore
SplineSet
1182 895 m 1,0,1
 1151 1049 1151 1049 1050.5 1122.5 c 128,-1,2
 950 1196 950 1196 772 1196 c 0,3,4
 540 1196 540 1196 426 1057.5 c 128,-1,5
 312 919 312 919 312 639 c 0,6,7
 312 364 312 364 429.5 223 c 128,-1,8
 547 82 547 82 776 82 c 0,9,10
 878 82 878 82 970 105 c 128,-1,11
 1062 128 1062 128 1146 173 c 1,12,-1
 1146 487 l 1,13,-1
 894 487 l 1,14,-1
 894 595 l 1,15,-1
 1330 595 l 1,16,-1
 1330 120 l 1,17,18
 1210 47 1210 47 1072 11 c 128,-1,19
 934 -25 934 -25 776 -25 c 0,20,21
 471 -25 471 -25 287.5 156.5 c 128,-1,22
 104 338 104 338 104 639 c 0,23,24
 104 942 104 942 288 1122.5 c 128,-1,25
 472 1303 472 1303 783 1303 c 0,26,27
 898 1303 898 1303 1022 1274 c 128,-1,28
 1146 1245 1146 1245 1284 1186 c 1,29,-1
 1284 895 l 1,30,-1
 1182 895 l 1,0,1
EndSplineSet
Validated: 1
EndChar

StartChar: h
Encoding: 63 104 63
Width: 1610
VWidth: 0
GlyphClass: 2
Flags: W
HStem: 0 106<102 273 457 628 983 1154 1338 1509> 630 123<457 1154> 1173 107<102 273 457 628 983 1154 1338 1509>
VStem: 273 184<106 630 753 1173> 1154 184<106 630 753 1173>
LayerCount: 2
Fore
SplineSet
102 0 m 1,0,-1
 102 106 l 1,1,-1
 273 106 l 1,2,-1
 273 1173 l 1,3,-1
 102 1173 l 1,4,-1
 102 1280 l 1,5,-1
 628 1280 l 1,6,-1
 628 1173 l 1,7,-1
 457 1173 l 1,8,-1
 457 753 l 1,9,-1
 1154 753 l 1,10,-1
 1154 1173 l 1,11,-1
 983 1173 l 1,12,-1
 983 1280 l 1,13,-1
 1509 1280 l 1,14,-1
 1509 1173 l 1,15,-1
 1338 1173 l 1,16,-1
 1338 106 l 1,17,-1
 1509 106 l 1,18,-1
 1509 0 l 1,19,-1
 983 0 l 1,20,-1
 983 106 l 1,21,-1
 1154 106 l 1,22,-1
 1154 630 l 1,23,-1
 457 630 l 1,24,-1
 457 106 l 1,25,-1
 628 106 l 1,26,-1
 628 0 l 1,27,-1
 102 0 l 1,0,-1
EndSplineSet
Validated: 1
EndChar

StartChar: i
Encoding: 64 105 64
Width: 729
VWidth: 0
GlyphClass: 2
Flags: W
HStem: 0 106<102 273 457 628> 1173 107<102 273 457 628>
VStem: 273 184<106 1173>
LayerCount: 2
Fore
SplineSet
457 106 m 1,0,-1
 628 106 l 1,1,-1
 628 0 l 1,2,-1
 102 0 l 1,3,-1
 102 106 l 1,4,-1
 273 106 l 1,5,-1
 273 1173 l 1,6,-1
 102 1173 l 1,7,-1
 102 1280 l 1,8,-1
 628 1280 l 1,9,-1
 628 1173 l 1,10,-1
 457 1173 l 1,11,-1
 457 106 l 1,0,-1
EndSplineSet
Validated: 1
EndChar

StartChar: j
Encoding: 65 106 65
Width: 740
VWidth: 0
GlyphClass: 2
Flags: W
HStem: -365 107<-7.52789 242.443> -297 235<-155 -52> 1173 107<92 301 485 656>
VStem: -155 103<-207.972 -62> 301 184<-196.953 1173>
LayerCount: 2
Fore
SplineSet
-155 -297 m 1,0,-1
 -155 -62 l 1,1,-1
 -52 -62 l 1,2,3
 -52 -161 -52 -161 -11 -209.5 c 128,-1,4
 30 -258 30 -258 109 -258 c 0,5,6
 216 -258 216 -258 258.5 -195 c 128,-1,7
 301 -132 301 -132 301 51 c 2,8,-1
 301 1173 l 1,9,-1
 92 1173 l 1,10,-1
 92 1280 l 1,11,-1
 656 1280 l 1,12,-1
 656 1173 l 1,13,-1
 485 1173 l 1,14,-1
 485 31 l 2,15,16
 485 -179 485 -179 395.5 -272 c 128,-1,17
 306 -365 306 -365 108 -365 c 0,18,19
 44 -365 44 -365 -22.5 -348 c 128,-1,20
 -89 -331 -89 -331 -155 -297 c 1,0,-1
EndSplineSet
Validated: 1
EndChar

StartChar: k
Encoding: 66 107 66
Width: 1412
VWidth: 0
GlyphClass: 2
Flags: W
HStem: 0 106<102 273 457 632 1287 1440> 1173 107<102 273 457 632 901 1045 1213 1364>
VStem: 273 184<106 600 707 1173>
DStem2: 457 707 623 705 0.783453 0.621451<128.81 750.267> 623 705 457 600 0.742461 -0.669889<0 842.76>
LayerCount: 2
Fore
SplineSet
102 0 m 1,0,-1
 102 106 l 1,1,-1
 273 106 l 1,2,-1
 273 1173 l 1,3,-1
 102 1173 l 1,4,-1
 102 1280 l 1,5,-1
 632 1280 l 1,6,-1
 632 1173 l 1,7,-1
 457 1173 l 1,8,-1
 457 707 l 1,9,-1
 1045 1173 l 1,10,-1
 901 1173 l 1,11,-1
 901 1280 l 1,12,-1
 1364 1280 l 1,13,-1
 1364 1173 l 1,14,-1
 1213 1173 l 1,15,-1
 623 705 l 1,16,-1
 1287 106 l 1,17,-1
 1440 106 l 1,18,-1
 1440 0 l 1,19,-1
 1122 0 l 1,20,-1
 457 600 l 1,21,-1
 457 106 l 1,22,-1
 632 106 l 1,23,-1
 632 0 l 1,24,-1
 102 0 l 1,0,-1
EndSplineSet
Validated: 1
EndChar

StartChar: l
Encoding: 67 108 67
Width: 1225
VWidth: 0
GlyphClass: 2
Flags: W
HStem: 0 123<457 1071> 0 106<102 273> 1173 107<102 273 457 628>
VStem: 273 184<123 1173> 1071 111<123 331>
LayerCount: 2
Fore
SplineSet
102 0 m 1,0,-1
 102 106 l 1,1,-1
 273 106 l 1,2,-1
 273 1173 l 1,3,-1
 102 1173 l 1,4,-1
 102 1280 l 1,5,-1
 628 1280 l 1,6,-1
 628 1173 l 1,7,-1
 457 1173 l 1,8,-1
 457 123 l 1,9,-1
 1071 123 l 1,10,-1
 1071 331 l 1,11,-1
 1182 331 l 1,12,-1
 1182 0 l 1,13,-1
 102 0 l 1,0,-1
EndSplineSet
Validated: 1
EndChar

StartChar: m
Encoding: 68 109 68
Width: 1920
VWidth: 0
GlyphClass: 2
Flags: W
HStem: 0 106<102 273 384 560 1288 1464 1648 1820> 1173 107<92 273 1648 1827>
VStem: 273 111<106 1077> 1464 184<106 1042>
DStem2: 486 1280 384 1077 0.480493 -0.876998<129.02 1023.95> 978 382 982 182 0.489431 0.872042<0 813.411>
LayerCount: 2
Fore
SplineSet
102 0 m 1,0,-1
 102 106 l 1,1,-1
 273 106 l 1,2,-1
 273 1173 l 1,3,-1
 92 1173 l 1,4,-1
 92 1280 l 1,5,-1
 486 1280 l 1,6,-1
 978 382 l 1,7,-1
 1482 1280 l 1,8,-1
 1827 1280 l 1,9,-1
 1827 1173 l 1,10,-1
 1648 1173 l 1,11,-1
 1648 106 l 1,12,-1
 1820 106 l 1,13,-1
 1820 0 l 1,14,-1
 1288 0 l 1,15,-1
 1288 106 l 1,16,-1
 1464 106 l 1,17,-1
 1464 1042 l 1,18,-1
 982 182 l 1,19,-1
 874 182 l 1,20,-1
 384 1077 l 1,21,-1
 384 106 l 1,22,-1
 560 106 l 1,23,-1
 560 0 l 1,24,-1
 102 0 l 1,0,-1
EndSplineSet
Validated: 1
EndChar

StartChar: n
Encoding: 69 110 69
Width: 1637
VWidth: 0
GlyphClass: 2
Flags: W
HStem: -25 21G<1266.14 1375> 0 106<90 271 382 568> 1173 107<90 271 1079 1264 1375 1556>
VStem: 271 111<106 1044> 1264 111<299 1173>
DStem2: 437 1280 382 1044 0.644466 -0.764633<145.008 1283.08>
LayerCount: 2
Fore
SplineSet
90 0 m 1,0,-1
 90 106 l 1,1,-1
 271 106 l 1,2,-1
 271 1173 l 1,3,-1
 90 1173 l 1,4,-1
 90 1280 l 1,5,-1
 437 1280 l 1,6,-1
 1264 299 l 1,7,-1
 1264 1173 l 1,8,-1
 1079 1173 l 1,9,-1
 1079 1280 l 1,10,-1
 1556 1280 l 1,11,-1
 1556 1173 l 1,12,-1
 1375 1173 l 1,13,-1
 1375 -25 l 1,14,-1
 1283 -25 l 1,15,-1
 382 1044 l 1,16,-1
 382 106 l 1,17,-1
 568 106 l 1,18,-1
 568 0 l 1,19,-1
 90 0 l 1,0,-1
EndSplineSet
Validated: 1
EndChar

StartChar: o
Encoding: 70 111 70
Width: 1514
VWidth: 0
GlyphClass: 2
Flags: W
HStem: -25 107<544.772 972.864> 1196 107<544.458 970.692>
VStem: 104 208<372.495 902.42> 1204 208<377.851 903.975>
LayerCount: 2
Fore
SplineSet
758 82 m 128,-1,1
 979 82 979 82 1091.5 222.5 c 128,-1,2
 1204 363 1204 363 1204 639 c 128,-1,3
 1204 915 1204 915 1091 1055.5 c 128,-1,4
 978 1196 978 1196 758 1196 c 0,5,6
 537 1196 537 1196 424.5 1055.5 c 128,-1,7
 312 915 312 915 312 639 c 0,8,9
 312 364 312 364 424.5 223 c 128,-1,0
 537 82 537 82 758 82 c 128,-1,1
758 -25 m 0,10,11
 621 -25 621 -25 505.5 18 c 128,-1,12
 390 61 390 61 303 144 c 0,13,14
 202 240 202 240 153 361.5 c 128,-1,15
 104 483 104 483 104 639 c 256,16,17
 104 794 104 794 153 916 c 0,18,19
 202 1037 202 1037 303 1134 c 0,20,21
 391 1218 391 1218 505 1260 c 0,22,23
 620 1303 620 1303 758 1303 c 0,24,25
 1051 1303 1051 1303 1231.5 1120.5 c 128,-1,26
 1412 938 1412 938 1412 639 c 0,27,28
 1412 486 1412 486 1362 362.5 c 128,-1,29
 1312 239 1312 239 1211 144 c 0,30,31
 1123 60 1123 60 1009.5 17.5 c 128,-1,32
 896 -25 896 -25 758 -25 c 0,10,11
EndSplineSet
Validated: 1
EndChar

StartChar: p
Encoding: 71 112 71
Width: 1242
VWidth: 0
GlyphClass: 2
Flags: W
HStem: 0 106<102 273 457 665> 552 108<457 867.949> 1173 107<102 273 457 867.008>
VStem: 273 184<106 552 660 1173> 969 208<756.87 1075.93>
LayerCount: 2
Fore
SplineSet
457 660 m 1,0,-1
 694 660 l 2,1,2
 828 660 828 660 898.5 726 c 128,-1,3
 969 792 969 792 969 916 c 0,4,5
 969 1041 969 1041 898.5 1107 c 128,-1,6
 828 1173 828 1173 694 1173 c 2,7,-1
 457 1173 l 1,8,-1
 457 660 l 1,0,-1
102 0 m 1,9,-1
 102 106 l 1,10,-1
 273 106 l 1,11,-1
 273 1173 l 1,12,-1
 102 1173 l 1,13,-1
 102 1280 l 1,14,-1
 738 1280 l 2,15,16
 940 1280 940 1280 1058.5 1181.5 c 128,-1,17
 1177 1083 1177 1083 1177 916 c 0,18,19
 1177 750 1177 750 1059 651 c 128,-1,20
 941 552 941 552 739 552 c 2,21,-1
 457 552 l 1,22,-1
 457 106 l 1,23,-1
 665 106 l 1,24,-1
 665 0 l 1,25,-1
 102 0 l 1,9,-1
EndSplineSet
Validated: 1
EndChar

StartChar: q
Encoding: 72 113 72
Width: 1514
VWidth: 0
GlyphClass: 2
Flags: W
HStem: -281 185<998.717 1217> -25 107<549.085 806.924> 1196 107<544.458 970.692>
VStem: 104 208<373.117 902.42> 1204 208<379.247 904.108>
LayerCount: 2
Fore
SplineSet
780 -25 m 1,0,1
 470 -25 470 -25 287 155.5 c 128,-1,2
 104 336 104 336 104 639 c 0,3,4
 104 794 104 794 153 916 c 0,5,6
 202 1037 202 1037 303 1134 c 0,7,8
 391 1218 391 1218 505 1260 c 0,9,10
 620 1303 620 1303 758 1303 c 0,11,12
 1051 1303 1051 1303 1231.5 1120.5 c 128,-1,13
 1412 938 1412 938 1412 640 c 0,14,15
 1412 387 1412 387 1276.5 214.5 c 128,-1,16
 1141 42 1141 42 903 -8 c 1,17,18
 952 -53 952 -53 1021.5 -74.5 c 128,-1,19
 1091 -96 1091 -96 1189 -96 c 2,20,-1
 1217 -96 l 1,21,-1
 1217 -281 l 1,22,23
 1065 -281 1065 -281 956.5 -214 c 128,-1,24
 848 -147 848 -147 780 -25 c 1,0,1
758 82 m 128,-1,26
 979 82 979 82 1091.5 222.5 c 128,-1,27
 1204 363 1204 363 1204 639 c 128,-1,28
 1204 915 1204 915 1091 1055.5 c 128,-1,29
 978 1196 978 1196 758 1196 c 0,30,31
 537 1196 537 1196 424.5 1055.5 c 128,-1,32
 312 915 312 915 312 639 c 0,33,34
 312 364 312 364 424.5 223 c 128,-1,25
 537 82 537 82 758 82 c 128,-1,26
EndSplineSet
Validated: 1
EndChar

StartChar: r
Encoding: 73 114 73
Width: 1394
VWidth: 0
GlyphClass: 2
Flags: W
HStem: 0 106<102 273 457 648 1275 1439> 586 108<457 790.428> 1173 107<102 273 457 906.699>
VStem: 273 184<106 586 694 1173> 992 208<775.832 1091.57>
DStem2: 1078 468 902 407 0.477187 -0.878802<-181.799 412.132>
LayerCount: 2
Fore
SplineSet
887 632 m 1,0,1
 950 616 950 616 996 577 c 128,-1,2
 1042 538 1042 538 1078 468 c 2,3,-1
 1275 106 l 1,4,-1
 1439 106 l 1,5,-1
 1439 0 l 1,6,-1
 1123 0 l 1,7,-1
 902 407 l 2,8,9
 842 520 842 520 792 553 c 128,-1,10
 742 586 742 586 655 586 c 2,11,-1
 457 586 l 1,12,-1
 457 106 l 1,13,-1
 648 106 l 1,14,-1
 648 0 l 1,15,-1
 102 0 l 1,16,-1
 102 106 l 1,17,-1
 273 106 l 1,18,-1
 273 1173 l 1,19,-1
 102 1173 l 1,20,-1
 102 1280 l 1,21,-1
 787 1280 l 2,22,23
 984 1280 984 1280 1092 1190.5 c 128,-1,24
 1200 1101 1200 1101 1200 936 c 0,25,26
 1200 803 1200 803 1121 727 c 128,-1,27
 1042 651 1042 651 887 632 c 1,0,1
457 694 m 1,28,-1
 724 694 l 2,29,30
 861 694 861 694 926.5 752.5 c 128,-1,31
 992 811 992 811 992 934 c 256,32,33
 992 1057 992 1057 926.5 1115 c 128,-1,34
 861 1173 861 1173 724 1173 c 2,35,-1
 457 1173 l 1,36,-1
 457 694 l 1,28,-1
EndSplineSet
Validated: 1
EndChar

StartChar: s
Encoding: 74 115 74
Width: 1264
VWidth: 0
GlyphClass: 2
Flags: W
HStem: -25 107<397.376 843.811> 1196 107<418.078 841.222>
VStem: 155 177<868.616 1117.47> 171 104<194.104 360> 949 181<173.713 431.144> 960 102<946 1082.48>
DStem2: 624 761 506 578 0.963752 -0.266801<-251.697 348.428>
LayerCount: 2
Fore
SplineSet
171 76 m 1,0,-1
 171 360 l 1,1,-1
 275 360 l 1,2,3
 275 218 275 218 361.5 150 c 128,-1,4
 448 82 448 82 620 82 c 0,5,6
 780 82 780 82 864.5 138.5 c 128,-1,7
 949 195 949 195 949 304 c 0,8,9
 949 391 949 391 898 437.5 c 128,-1,10
 847 484 847 484 683 529 c 2,11,-1
 506 578 l 2,12,13
 313 635 313 635 234 720 c 128,-1,14
 155 805 155 805 155 956 c 0,15,16
 155 1121 155 1121 276 1211 c 0,17,18
 400 1303 400 1303 618 1303 c 0,19,20
 712 1303 712 1303 824 1280.5 c 128,-1,21
 936 1258 936 1258 1062 1215 c 1,22,-1
 1062 946 l 1,23,-1
 960 946 l 1,24,25
 945 1078 945 1078 865 1137 c 128,-1,26
 785 1196 785 1196 622 1196 c 0,27,28
 480 1196 480 1196 406 1144 c 128,-1,29
 332 1092 332 1092 332 993 c 0,30,31
 332 907 332 907 387.5 858 c 128,-1,32
 443 809 443 809 624 761 c 2,33,-1
 791 715 l 2,34,35
 974 662 974 662 1052 579 c 128,-1,36
 1130 496 1130 496 1130 357 c 0,37,38
 1130 167 1130 167 1004.5 71 c 128,-1,39
 879 -25 879 -25 631 -25 c 0,40,41
 520 -25 520 -25 405 0 c 128,-1,42
 290 25 290 25 171 76 c 1,0,-1
EndSplineSet
Validated: 1
EndChar

StartChar: t
Encoding: 75 116 75
Width: 1231
VWidth: 0
GlyphClass: 2
Flags: W
HStem: 0 106<352 524 707 879> 928 352<18 129 1102 1213> 1161 119<129 524 707 1102>
VStem: 18 111<928 1161> 524 183<106 1161> 1102 111<928 1161>
CounterMasks: 1 1c
LayerCount: 2
Fore
SplineSet
352 0 m 1,0,-1
 352 106 l 1,1,-1
 524 106 l 1,2,-1
 524 1161 l 1,3,-1
 129 1161 l 1,4,-1
 129 928 l 1,5,-1
 18 928 l 1,6,-1
 18 1280 l 1,7,-1
 1213 1280 l 1,8,-1
 1213 928 l 1,9,-1
 1102 928 l 1,10,-1
 1102 1161 l 1,11,-1
 707 1161 l 1,12,-1
 707 106 l 1,13,-1
 879 106 l 1,14,-1
 879 0 l 1,15,-1
 352 0 l 1,0,-1
EndSplineSet
Validated: 1
EndChar

StartChar: u
Encoding: 76 117 76
Width: 1555
VWidth: 0
GlyphClass: 2
Flags: W
HStem: -25 131<591.39 1041.89> 1173 107<86 258 441 613 1018 1190 1301 1472>
VStem: 258 183<263.524 1173> 1190 111<264.187 1173>
LayerCount: 2
Fore
SplineSet
258 1173 m 1,0,-1
 86 1173 l 1,1,-1
 86 1280 l 1,2,-1
 613 1280 l 1,3,-1
 613 1173 l 1,4,-1
 441 1173 l 1,5,-1
 441 531 l 2,6,7
 441 293 441 293 525.5 199.5 c 128,-1,8
 610 106 610 106 816 106 c 256,9,10
 1022 106 1022 106 1106 200 c 128,-1,11
 1190 294 1190 294 1190 531 c 2,12,-1
 1190 1173 l 1,13,-1
 1018 1173 l 1,14,-1
 1018 1280 l 1,15,-1
 1472 1280 l 1,16,-1
 1472 1173 l 1,17,-1
 1301 1173 l 1,18,-1
 1301 502 l 2,19,20
 1301 213 1301 213 1183 94 c 128,-1,21
 1065 -25 1065 -25 782 -25 c 256,22,23
 499 -25 499 -25 378.5 95 c 128,-1,24
 258 215 258 215 258 502 c 2,25,-1
 258 1173 l 1,0,-1
EndSplineSet
Validated: 1
EndChar

StartChar: v
Encoding: 77 118 77
Width: 1352
VWidth: 0
GlyphClass: 2
Flags: W
HStem: 0 21G<597.645 765.389> 1173 107<-18 116 329 474 978 1133 1249 1379>
DStem2: 329 1173 116 1173 0.385453 -0.922727<0 1042.23> 730 211 757 0 0.386791 0.922167<0 1043>
LayerCount: 2
Fore
SplineSet
329 1173 m 1,0,-1
 730 211 l 1,1,-1
 1133 1173 l 1,2,-1
 978 1173 l 1,3,-1
 978 1280 l 1,4,-1
 1379 1280 l 1,5,-1
 1379 1173 l 1,6,-1
 1249 1173 l 1,7,-1
 757 0 l 1,8,-1
 606 0 l 1,9,-1
 116 1173 l 1,10,-1
 -18 1173 l 1,11,-1
 -18 1280 l 1,12,-1
 474 1280 l 1,13,-1
 474 1173 l 1,14,-1
 329 1173 l 1,0,-1
EndSplineSet
Validated: 1
EndChar

StartChar: w
Encoding: 78 119 78
Width: 1944
VWidth: 0
GlyphClass: 2
Flags: W
HStem: 0 21G<499.794 661.366 1299.61 1449.21> 1173 107<9 142 336 510 1543 1706 1807 1939>
DStem2: 336 1173 142 1173 0.296374 -0.955072<0 981.147> 627 236 655 0 0.303053 0.952974<0 855.062> 1087 1280 980 1021 0.304342 -0.952563<214.149 1087.59> 1418 244 1443 0 0.296374 0.955072<0 972.618>
LayerCount: 2
Fore
SplineSet
1443 0 m 1,0,-1
 1306 0 l 1,1,-1
 980 1021 l 1,2,-1
 655 0 l 1,3,-1
 506 0 l 1,4,-1
 142 1173 l 1,5,-1
 9 1173 l 1,6,-1
 9 1280 l 1,7,-1
 510 1280 l 1,8,-1
 510 1173 l 1,9,-1
 336 1173 l 1,10,-1
 627 236 l 1,11,-1
 959 1280 l 1,12,-1
 1087 1280 l 1,13,-1
 1418 244 l 1,14,-1
 1706 1173 l 1,15,-1
 1543 1173 l 1,16,-1
 1543 1280 l 1,17,-1
 1939 1280 l 1,18,-1
 1939 1173 l 1,19,-1
 1807 1173 l 1,20,-1
 1443 0 l 1,0,-1
EndSplineSet
Validated: 1
EndChar

StartChar: x
Encoding: 79 120 79
Width: 1348
VWidth: 0
GlyphClass: 2
Flags: W
HStem: 0 106<11 166 291 453 777 948 1195 1339> 1173 107<13 157 404 549 809 996 1121 1273>
DStem2: 404 1173 157 1173 0.595534 -0.80333<0 485.408 642.115 1181.12> 166 106 291 106 0.613992 0.789312<76.749 624.822 857.938 1351.81>
LayerCount: 2
Fore
SplineSet
627 539 m 1,0,-1
 291 106 l 1,1,-1
 453 106 l 1,2,-1
 453 0 l 1,3,-1
 11 0 l 1,4,-1
 11 106 l 1,5,-1
 166 106 l 1,6,-1
 567 621 l 1,7,-1
 157 1173 l 1,8,-1
 13 1173 l 1,9,-1
 13 1280 l 1,10,-1
 549 1280 l 1,11,-1
 549 1173 l 1,12,-1
 404 1173 l 1,13,-1
 693 783 l 1,14,-1
 996 1173 l 1,15,-1
 809 1173 l 1,16,-1
 809 1280 l 1,17,-1
 1273 1280 l 1,18,-1
 1273 1173 l 1,19,-1
 1121 1173 l 1,20,-1
 754 701 l 1,21,-1
 1195 106 l 1,22,-1
 1339 106 l 1,23,-1
 1339 0 l 1,24,-1
 777 0 l 1,25,-1
 777 106 l 1,26,-1
 948 106 l 1,27,-1
 627 539 l 1,0,-1
EndSplineSet
Validated: 1
EndChar

StartChar: y
Encoding: 80 121 80
Width: 1238
VWidth: 0
GlyphClass: 2
Flags: W
HStem: 0 106<350 529 712 887> 1173 107<-21 105 337 486 855 1010 1128 1255>
VStem: 529 183<106 564>
DStem2: 337 1173 105 1173 0.572646 -0.819803<0 593.944> 677 686 712 564 0.564052 0.825739<0 589.964>
LayerCount: 2
Fore
SplineSet
350 0 m 1,0,-1
 350 106 l 1,1,-1
 529 106 l 1,2,-1
 529 566 l 1,3,-1
 105 1173 l 1,4,-1
 -21 1173 l 1,5,-1
 -21 1280 l 1,6,-1
 486 1280 l 1,7,-1
 486 1173 l 1,8,-1
 337 1173 l 1,9,-1
 677 686 l 1,10,-1
 1010 1173 l 1,11,-1
 855 1173 l 1,12,-1
 855 1280 l 1,13,-1
 1255 1280 l 1,14,-1
 1255 1173 l 1,15,-1
 1128 1173 l 1,16,-1
 712 564 l 1,17,-1
 712 106 l 1,18,-1
 887 106 l 1,19,-1
 887 0 l 1,20,-1
 350 0 l 1,0,-1
EndSplineSet
Validated: 1
EndChar

StartChar: z
Encoding: 81 122 81
Width: 1308
VWidth: 0
GlyphClass: 2
Flags: W
HStem: 0 123<365 1125> 1157 123<229 948>
VStem: 118 111<972 1157> 1125 111<123 296>
DStem2: 83 72 365 123 0.623376 0.781922<215.67 1387.61>
LayerCount: 2
Fore
SplineSet
83 0 m 1,0,-1
 83 72 l 1,1,-1
 948 1157 l 1,2,-1
 229 1157 l 1,3,-1
 229 972 l 1,4,-1
 118 972 l 1,5,-1
 118 1280 l 1,6,-1
 1230 1280 l 1,7,-1
 1230 1208 l 1,8,-1
 365 123 l 1,9,-1
 1125 123 l 1,10,-1
 1125 296 l 1,11,-1
 1236 296 l 1,12,-1
 1236 0 l 1,13,-1
 83 0 l 1,0,-1
EndSplineSet
Validated: 1
EndChar

StartChar: bar
Encoding: 82 124 82
Width: 622
VWidth: 0
GlyphClass: 2
Flags: W
VStem: 238 147<-414 1342>
LayerCount: 2
Fore
SplineSet
385 1342 m 1,0,-1
 385 -414 l 1,1,-1
 238 -414 l 1,2,-1
 238 1342 l 1,3,-1
 385 1342 l 1,0,-1
EndSplineSet
Validated: 1
EndChar

StartChar: copyright
Encoding: 83 169 83
Width: 1848
VWidth: 0
GlyphClass: 2
Flags: W
HStem: 0 102<690.894 1158.66> 259 78<801.455 1063.32> 729 211<1132.29 1216> 940 78<803.506 1058.2> 1170 103<690.894 1158.17>
VStem: 255 92<428.737 843.174> 555 156<440.481 835.003> 1140 76<729 851.461> 1502 92<425.233 843.916>
LayerCount: 2
Fore
SplineSet
1242 484 m 1,0,1
 1218 375 1218 375 1136 317 c 128,-1,2
 1054 259 1054 259 925 259 c 0,3,4
 756 259 756 259 655.5 362 c 128,-1,5
 555 465 555 465 555 637 c 0,6,7
 555 810 555 810 656.5 914 c 128,-1,8
 758 1018 758 1018 925 1018 c 0,9,10
 997 1018 997 1018 1067 998.5 c 128,-1,11
 1137 979 1137 979 1216 940 c 1,12,-1
 1216 729 l 1,13,-1
 1140 729 l 1,14,15
 1125 838 1125 838 1073.5 889 c 128,-1,16
 1022 940 1022 940 927 940 c 0,17,18
 820 940 820 940 765.5 864 c 128,-1,19
 711 788 711 788 711 637 c 0,20,21
 711 487 711 487 765 412 c 128,-1,22
 819 337 819 337 925 337 c 0,23,24
 1012 337 1012 337 1063.5 373 c 128,-1,25
 1115 409 1115 409 1134 484 c 1,26,-1
 1242 484 l 1,0,1
924 1273 m 256,27,28
 1061 1273 1061 1273 1180 1226 c 128,-1,29
 1299 1179 1299 1179 1398 1085 c 256,30,31
 1496 992 1496 992 1545 879.5 c 128,-1,32
 1594 767 1594 767 1594 635 c 0,33,34
 1594 505 1594 505 1545 393 c 128,-1,35
 1496 281 1496 281 1398 188 c 256,36,37
 1300 95 1300 95 1181 47.5 c 128,-1,38
 1062 0 1062 0 924 0 c 256,39,40
 787 0 787 0 668 47 c 128,-1,41
 549 94 549 94 451 188 c 256,42,43
 353 281 353 281 304 393 c 128,-1,44
 255 505 255 505 255 635 c 0,45,46
 255 767 255 767 303.5 879.5 c 128,-1,47
 352 992 352 992 451 1085 c 256,48,49
 549 1178 549 1178 668 1225.5 c 128,-1,50
 787 1273 787 1273 924 1273 c 256,27,28
924 1170 m 0,51,52
 806 1170 806 1170 704 1131 c 128,-1,53
 602 1092 602 1092 517 1013 c 0,54,55
 433 935 433 935 390 839.5 c 128,-1,56
 347 744 347 744 347 635 c 0,57,58
 347 527 347 527 390 432 c 128,-1,59
 433 337 433 337 517 259 c 0,60,61
 602 181 602 181 704 141.5 c 128,-1,62
 806 102 806 102 924 102 c 0,63,64
 1043 102 1043 102 1146 141 c 128,-1,65
 1249 180 1249 180 1334 259 c 0,66,67
 1418 337 1418 337 1460 431.5 c 128,-1,68
 1502 526 1502 526 1502 635 c 0,69,70
 1502 746 1502 746 1459.5 841 c 128,-1,71
 1417 936 1417 936 1334 1013 c 0,72,73
 1249 1091 1249 1091 1146 1130.5 c 128,-1,74
 1043 1170 1043 1170 924 1170 c 0,51,52
EndSplineSet
EndChar

StartChar: sfthyphen
Encoding: 84 173 84
Width: 626
VWidth: 0
GlyphClass: 2
Flags: W
HStem: 392 157<81 545>
VStem: 81 464<392 549>
LayerCount: 2
Fore
SplineSet
81 549 m 1,0,-1
 545 549 l 1,1,-1
 545 392 l 1,2,-1
 81 392 l 1,3,-1
 81 549 l 1,0,-1
EndSplineSet
EndChar

StartChar: paragraph
Encoding: 85 182 85
Width: 1177
VWidth: 0
GlyphClass: 2
Flags: W
HStem: 1173 107<647 855 952 1058>
VStem: 142 505<727.241 1089.36> 550 97<-184 541> 855 97<-184 1173>
LayerCount: 2
Fore
SplineSet
572 1280 m 2,0,-1
 1058 1280 l 1,1,-1
 1058 1173 l 1,2,-1
 952 1173 l 1,3,-1
 952 -184 l 1,4,-1
 855 -184 l 1,5,-1
 855 1173 l 1,6,-1
 647 1173 l 1,7,-1
 647 -184 l 1,8,-1
 550 -184 l 1,9,-1
 550 541 l 1,10,11
 355 541 355 541 248.5 645 c 128,-1,12
 142 749 142 749 142 911 c 0,13,14
 142 1077 142 1077 260 1178.5 c 128,-1,15
 378 1280 378 1280 572 1280 c 2,0,-1
EndSplineSet
EndChar

StartChar: multiply
Encoding: 86 215 86
Width: 1585
VWidth: 0
GlyphClass: 2
Flags: W
DStem2: 368 1045 255 942 0.739045 -0.673656<0 567.737 734.761 1301.09> 255 158 368 56 0.739356 0.673315<14.8691 581.862 748.957 1317.36>
LayerCount: 2
Fore
SplineSet
1332 934 m 1,0,-1
 911 550 l 1,1,-1
 1332 167 l 1,2,-1
 1227 56 l 1,3,-1
 797 447 l 1,4,-1
 368 56 l 1,5,-1
 255 158 l 1,6,-1
 685 550 l 1,7,-1
 255 942 l 1,8,-1
 368 1045 l 1,9,-1
 798 653 l 1,10,-1
 1229 1045 l 1,11,-1
 1332 934 l 1,0,-1
EndSplineSet
EndChar

StartChar: uni2010
Encoding: 88 8208 87
Width: 626
VWidth: 0
GlyphClass: 2
Flags: W
HStem: 392 157<81 545>
VStem: 81 464<392 549>
LayerCount: 2
Fore
SplineSet
81 549 m 1,0,-1
 545 549 l 1,1,-1
 545 392 l 1,2,-1
 81 392 l 1,3,-1
 81 549 l 1,0,-1
EndSplineSet
EndChar

StartChar: uni2011
Encoding: 89 8209 88
Width: 626
VWidth: 0
GlyphClass: 2
Flags: W
HStem: 392 157<81 545>
VStem: 81 464<392 549>
LayerCount: 2
Fore
SplineSet
81 549 m 1,0,-1
 545 549 l 1,1,-1
 545 392 l 1,2,-1
 81 392 l 1,3,-1
 81 549 l 1,0,-1
EndSplineSet
EndChar

StartChar: endash
Encoding: 90 8211 89
Width: 922
VWidth: 0
GlyphClass: 2
Flags: W
HStem: 398 134<81 841>
LayerCount: 2
Fore
SplineSet
81 532 m 1,0,-1
 841 532 l 1,1,-1
 841 398 l 1,2,-1
 81 398 l 1,3,-1
 81 532 l 1,0,-1
EndSplineSet
EndChar

StartChar: quoteleft
Encoding: 91 8216 90
Width: 586
VWidth: 0
GlyphClass: 2
Flags: W
HStem: 797 506
VStem: 188 176<797 1060.54>
LayerCount: 2
Fore
SplineSet
495 1223 m 1,0,1
 426 1159 426 1159 395 1074 c 128,-1,2
 364 989 364 989 364 860 c 2,3,-1
 364 797 l 1,4,-1
 188 797 l 1,5,6
 188 971 188 971 245 1091.5 c 128,-1,7
 302 1212 302 1212 425 1303 c 1,8,-1
 495 1223 l 1,0,1
EndSplineSet
EndChar

StartChar: quoteright
Encoding: 92 8217 91
Width: 587
VWidth: 0
GlyphClass: 2
Flags: W
HStem: 774 506
VStem: 264 176<1017.06 1280>
LayerCount: 2
Fore
SplineSet
130 854 m 1,0,1
 200 917 200 917 232 1003 c 128,-1,2
 264 1089 264 1089 264 1219 c 2,3,-1
 264 1280 l 1,4,-1
 440 1280 l 1,5,6
 440 1107 440 1107 382.5 986 c 128,-1,7
 325 865 325 865 201 774 c 1,8,-1
 130 854 l 1,0,1
EndSplineSet
EndChar

StartChar: quotedblleft
Encoding: 93 8220 92
Width: 945
VWidth: 0
GlyphClass: 2
Flags: W
HStem: 797 506
VStem: 188 176<797 1060.54> 545 177<797 1061.14>
LayerCount: 2
Fore
SplineSet
853 1223 m 1,0,1
 784 1159 784 1159 753 1074 c 128,-1,2
 722 989 722 989 722 860 c 2,3,-1
 722 797 l 1,4,-1
 545 797 l 1,5,6
 545 972 545 972 602 1092 c 128,-1,7
 659 1212 659 1212 783 1303 c 1,8,-1
 853 1223 l 1,0,1
496 1223 m 1,9,10
 427 1159 427 1159 395.5 1074 c 128,-1,11
 364 989 364 989 364 860 c 2,12,-1
 364 797 l 1,13,-1
 188 797 l 1,14,15
 188 971 188 971 245 1091.5 c 128,-1,16
 302 1212 302 1212 425 1303 c 1,17,-1
 496 1223 l 1,9,10
EndSplineSet
EndChar

StartChar: quotedblright
Encoding: 94 8221 93
Width: 945
VWidth: 0
GlyphClass: 2
Flags: W
HStem: 774 506
VStem: 264 176<1017.06 1280> 620 176<1015.86 1280>
LayerCount: 2
Fore
SplineSet
130 854 m 1,0,1
 200 917 200 917 232 1003 c 128,-1,2
 264 1089 264 1089 264 1219 c 2,3,-1
 264 1280 l 1,4,-1
 440 1280 l 1,5,6
 440 1107 440 1107 382.5 986 c 128,-1,7
 325 865 325 865 201 774 c 1,8,-1
 130 854 l 1,0,1
490 854 m 1,9,10
 558 917 558 917 589 1002.5 c 128,-1,11
 620 1088 620 1088 620 1217 c 2,12,-1
 620 1280 l 1,13,-1
 796 1280 l 1,14,15
 796 1105 796 1105 739 985 c 128,-1,16
 682 865 682 865 560 774 c 1,17,-1
 490 854 l 1,9,10
EndSplineSet
EndChar

StartChar: bullet
Encoding: 95 8226 94
Width: 1090
VWidth: 0
GlyphClass: 2
Flags: W
HStem: 355 593<401.464 690.019>
VStem: 276 538<487.156 817.344>
LayerCount: 2
Fore
SplineSet
276 653 m 0,0,1
 276 777 276 777 354.5 862.5 c 128,-1,2
 433 948 433 948 547 948 c 0,3,4
 659 948 659 948 736.5 862.5 c 128,-1,5
 814 777 814 777 814 653 c 0,6,7
 814 528 814 528 736.5 441.5 c 128,-1,8
 659 355 659 355 545 355 c 256,9,10
 432 355 432 355 354 441.5 c 128,-1,11
 276 528 276 528 276 653 c 0,0,1
EndSplineSet
EndChar

StartChar: uni2023
Encoding: 96 8227 95
Width: 1091
VWidth: 0
GlyphClass: 2
Flags: W
HStem: 330 645
VStem: 276 611
LayerCount: 2
Fore
SplineSet
276 330 m 1,0,-1
 276 975 l 1,1,-1
 887 652 l 1,2,-1
 276 330 l 1,0,-1
EndSplineSet
EndChar

StartChar: ellipsis
Encoding: 97 8230 96
Width: 1847
VWidth: 0
Flags: W
HStem: -25 267<224.098 392.387 839.098 1007.39 1454.1 1622.39>
VStem: 188 241<15.2227 201.777> 803 241<15.2227 201.777> 1418 241<15.2227 201.777>
CounterMasks: 1 70
LayerCount: 2
Fore
SplineSet
1418 108 m 256,0,1
 1418 164 1418 164 1453 203 c 128,-1,2
 1488 242 1488 242 1539 242 c 0,3,4
 1589 242 1589 242 1624 203 c 128,-1,5
 1659 164 1659 164 1659 108 c 0,6,7
 1659 53 1659 53 1623.5 14 c 128,-1,8
 1588 -25 1588 -25 1539 -25 c 0,9,10
 1487 -25 1487 -25 1452.5 13.5 c 128,-1,11
 1418 52 1418 52 1418 108 c 256,0,1
803 108 m 256,12,13
 803 164 803 164 838 203 c 128,-1,14
 873 242 873 242 924 242 c 0,15,16
 974 242 974 242 1009 203 c 128,-1,17
 1044 164 1044 164 1044 108 c 0,18,19
 1044 53 1044 53 1008.5 14 c 128,-1,20
 973 -25 973 -25 924 -25 c 0,21,22
 872 -25 872 -25 837.5 13.5 c 128,-1,23
 803 52 803 52 803 108 c 256,12,13
188 108 m 256,24,25
 188 164 188 164 223 203 c 128,-1,26
 258 242 258 242 309 242 c 0,27,28
 359 242 359 242 394 203 c 128,-1,29
 429 164 429 164 429 108 c 0,30,31
 429 53 429 53 393.5 14 c 128,-1,32
 358 -25 358 -25 309 -25 c 0,33,34
 257 -25 257 -25 222.5 13.5 c 128,-1,35
 188 52 188 52 188 108 c 256,24,25
EndSplineSet
EndChar

StartChar: zero.onum
Encoding: 169 -1 97
Width: 1174
VWidth: 0
Flags: W
HStem: -25 99<453.679 720.569> 1204 99<453.679 720.569>
VStem: 122 190<312.849 965.481> 862 190<312.849 965.151>
LayerCount: 2
Fore
SplineSet
587 74 m 256,0,1
 725 74 725 74 793.5 214.5 c 128,-1,2
 862 355 862 355 862 639 c 128,-1,3
 862 923 862 923 793.5 1063.5 c 128,-1,4
 725 1204 725 1204 587 1204 c 256,5,6
 449 1204 449 1204 380.5 1063.5 c 128,-1,7
 312 923 312 923 312 639 c 128,-1,8
 312 355 312 355 380.5 214.5 c 128,-1,9
 449 74 449 74 587 74 c 256,0,1
587 -25 m 0,10,11
 368 -25 368 -25 245 150 c 128,-1,12
 122 325 122 325 122 639 c 0,13,14
 122 954 122 954 245 1128.5 c 128,-1,15
 368 1303 368 1303 587 1303 c 0,16,17
 807 1303 807 1303 929.5 1128 c 128,-1,18
 1052 953 1052 953 1052 639 c 128,-1,19
 1052 325 1052 325 929.5 150 c 128,-1,20
 807 -25 807 -25 587 -25 c 0,10,11
EndSplineSet
Validated: 1
EndChar

StartChar: one.onum
Encoding: 170 -1 98
Width: 1184
VWidth: 0
Flags: W
HStem: 0 106<263 507 689 923> 1283 20G<541.104 689>
VStem: 507 182<106 1140>
DStem2: 241 1111 225 979 0.867605 0.497254<0 245.203>
LayerCount: 2
Fore
SplineSet
263 0 m 1,0,-1
 263 106 l 1,1,-1
 507 106 l 1,2,-1
 507 1140 l 1,3,-1
 225 979 l 1,4,-1
 241 1111 l 1,5,-1
 576 1303 l 1,6,-1
 689 1303 l 1,7,-1
 689 106 l 1,8,-1
 923 106 l 1,9,-1
 923 0 l 1,10,-1
 263 0 l 1,0,-1
EndSplineSet
Validated: 1
EndChar

StartChar: two.onum
Encoding: 171 -1 99
Width: 1189
VWidth: 0
Flags: W
HStem: 0 164<357 903> 969 220<135 224.223> 1204 99<342.945 692.091>
VStem: 135 102<969 1100.04> 799 191<774.582 1097.54> 903 106<164 316>
DStem2: 125 108 357 164 0.745335 0.66669<210.252 871.619>
LayerCount: 2
Fore
SplineSet
237 969 m 1,0,-1
 135 969 l 1,1,-1
 135 1189 l 1,2,3
 233 1244 233 1244 333 1274 c 0,4,5
 434 1303 434 1303 528 1303 c 0,6,7
 741 1303 741 1303 866 1204 c 0,8,9
 990 1106 990 1106 990 937 c 0,10,11
 990 746 990 746 711 481 c 0,12,13
 689 461 689 461 678 451 c 2,14,-1
 357 164 l 1,15,-1
 903 164 l 1,16,-1
 903 316 l 1,17,-1
 1009 316 l 1,18,-1
 1009 0 l 1,19,-1
 125 0 l 1,20,-1
 125 108 l 1,21,-1
 542 481 l 2,22,23
 681 607 681 607 740 712.5 c 128,-1,24
 799 818 799 818 799 934 c 0,25,26
 799 1061 799 1061 726.5 1132.5 c 128,-1,27
 654 1204 654 1204 526 1204 c 0,28,29
 394 1204 394 1204 322 1145 c 128,-1,30
 250 1086 250 1086 237 969 c 1,0,-1
EndSplineSet
Validated: 1
EndChar

StartChar: three.onum
Encoding: 172 -1 100
Width: 1303
Flags: W
HStem: -246 99<406.106 793.337> 541 102<487 757.032> 950 263<199 317.13> 1204 99<426.376 782.298>
VStem: 156 112<-19.9141 145> 199 112<950 1088.67> 887 203<774.478 1100.43> 940 211<0.597351 384.339>
LayerCount: 2
Fore
SplineSet
199 1213 m 1,0,1
 316 1257 316 1257 423.5 1280 c 128,-1,2
 531 1303 531 1303 625 1303 c 0,3,4
 844 1303 844 1303 967 1208.5 c 128,-1,5
 1090 1114 1090 1114 1090 946 c 0,6,7
 1090 811 1090 811 1005 720.5 c 128,-1,8
 920 630 920 630 764 598 c 1,9,10
 948 572 948 572 1049.5 464.5 c 128,-1,11
 1151 357 1151 357 1151 186 c 0,12,13
 1151 -23 1151 -23 1010.5 -134.5 c 128,-1,14
 870 -246 870 -246 606 -246 c 0,15,16
 489 -246 489 -246 377.5 -221 c 128,-1,17
 266 -196 266 -196 156 -145 c 1,18,-1
 156 145 l 1,19,-1
 268 145 l 1,20,21
 268 1 268 1 360 -73 c 128,-1,22
 452 -147 452 -147 610 -147 c 0,23,24
 763 -147 763 -147 851.5 -58.5 c 128,-1,25
 940 30 940 30 940 184 c 0,26,27
 940 360 940 360 849 450.5 c 128,-1,28
 758 541 758 541 582 541 c 2,29,-1
 487 541 l 1,30,-1
 487 643 l 1,31,-1
 537 643 l 2,32,33
 712 643 712 643 799.5 715.5 c 128,-1,34
 887 788 887 788 887 934 c 0,35,36
 887 1065 887 1065 815 1134.5 c 128,-1,37
 743 1204 743 1204 608 1204 c 256,38,39
 473 1204 473 1204 398.5 1140 c 128,-1,40
 324 1076 324 1076 311 950 c 1,41,-1
 199 950 l 1,42,-1
 199 1213 l 1,0,1
EndSplineSet
Validated: 1
EndChar

StartChar: four.onum
Encoding: 173 -1 101
Width: 1303
Flags: W
HStem: -217 106<475 715 915 1155> 182 107<205 715 915 1200> 1283 20G<702.115 915>
VStem: 715 200<-111 182 289 1083>
DStem2: 63 291 205 289 0.541597 0.840638<75.2255 1018.91>
LayerCount: 2
Fore
SplineSet
715 289 m 1,0,-1
 715 1083 l 1,1,-1
 205 289 l 1,2,-1
 715 289 l 1,0,-1
1155 -217 m 1,3,-1
 475 -217 l 1,4,-1
 475 -111 l 1,5,-1
 715 -111 l 1,6,-1
 715 182 l 1,7,-1
 63 182 l 1,8,-1
 63 291 l 1,9,-1
 715 1303 l 1,10,-1
 915 1303 l 1,11,-1
 915 289 l 1,12,-1
 1200 289 l 1,13,-1
 1200 182 l 1,14,-1
 915 182 l 1,15,-1
 915 -111 l 1,16,-1
 1155 -111 l 1,17,-1
 1155 -217 l 1,3,-1
EndSplineSet
Validated: 1
EndChar

StartChar: five.onum
Encoding: 174 -1 102
Width: 1303
Flags: W
HStem: -242 99<415.935 781.917> 661 99<424.093 779.963> 1116 164<346 1030>
VStem: 174 113<-20.5127 149> 240 106<688 1116> 934 211<26.5688 489.031>
LayerCount: 2
Fore
SplineSet
1030 1280 m 1,0,-1
 1030 1116 l 1,1,-1
 346 1116 l 1,2,-1
 346 688 l 1,3,4
 398 724 398 724 467.5 742 c 128,-1,5
 537 760 537 760 623 760 c 0,6,7
 865 760 865 760 1005 626 c 128,-1,8
 1145 492 1145 492 1145 260 c 0,9,10
 1145 23 1145 23 1003.5 -109.5 c 128,-1,11
 862 -242 862 -242 606 -242 c 0,12,13
 503 -242 503 -242 395 -217 c 128,-1,14
 287 -192 287 -192 174 -141 c 1,15,-1
 174 149 l 1,16,-1
 287 149 l 1,17,18
 287 7 287 7 373 -68 c 128,-1,19
 459 -143 459 -143 606 -143 c 0,20,21
 764 -143 764 -143 849 -39 c 128,-1,22
 934 65 934 65 934 260 c 0,23,24
 934 454 934 454 849.5 557.5 c 128,-1,25
 765 661 765 661 606 661 c 0,26,27
 516 661 516 661 447.5 629 c 128,-1,28
 379 597 379 597 326 530 c 1,29,-1
 240 530 l 1,30,-1
 240 1280 l 1,31,-1
 1030 1280 l 1,0,-1
EndSplineSet
Validated: 1
EndChar

StartChar: six.onum
Encoding: 175 -1 103
Width: 1303
Flags: W
HStem: -29 99<515.66 825.335> 872 99<510.217 824.657> 1214 246<975.524 1096> 1421 99<549.392 894.629>
VStem: 137 207<822 1055.19> 963 211<243.595 706.813> 983 113<1214 1334.39>
LayerCount: 2
Fore
SplineSet
670 70 m 256,0,1
 811 70 811 70 887 173.5 c 128,-1,2
 963 277 963 277 963 471 c 256,3,4
 963 665 963 665 887 768.5 c 128,-1,5
 811 872 811 872 670 872 c 0,6,7
 527 872 527 872 452 772 c 128,-1,8
 377 672 377 672 377 483 c 0,9,10
 377 284 377 284 453 177 c 128,-1,11
 529 70 529 70 670 70 c 256,0,1
344 822 m 1,12,13
 412 897 412 897 498 934 c 128,-1,14
 584 971 584 971 692 971 c 0,15,16
 915 971 915 971 1044.5 837 c 128,-1,17
 1174 703 1174 703 1174 471 c 0,18,19
 1174 244 1174 244 1034.5 107.5 c 128,-1,20
 895 -29 895 -29 662 -29 c 0,21,22
 409 -29 409 -29 273 159.5 c 128,-1,23
 137 348 137 348 137 698 c 0,24,25
 137 1090 137 1090 298 1305 c 128,-1,26
 459 1520 459 1520 752 1520 c 0,27,28
 831 1520 831 1520 918 1505 c 128,-1,29
 1005 1490 1005 1490 1096 1460 c 1,30,-1
 1096 1214 l 1,31,-1
 983 1214 l 1,32,33
 971 1315 971 1315 906 1368 c 128,-1,34
 841 1421 841 1421 731 1421 c 0,35,36
 537 1421 537 1421 440.5 1274 c 128,-1,37
 344 1127 344 1127 344 822 c 1,12,13
EndSplineSet
Validated: 1
EndChar

StartChar: seven.onum
Encoding: 176 -1 104
Width: 1303
Flags: W
HStem: 1116 164<289 979>
VStem: 172 117<932 1116>
DStem2: 422 -213 571 -213 0.387109 0.922034<57.6792 1441>
LayerCount: 2
Fore
SplineSet
1155 1178 m 1,0,-1
 571 -213 l 1,1,-1
 422 -213 l 1,2,-1
 979 1116 l 1,3,-1
 289 1116 l 1,4,-1
 289 932 l 1,5,-1
 172 932 l 1,6,-1
 172 1280 l 1,7,-1
 1155 1280 l 1,8,-1
 1155 1178 l 1,0,-1
EndSplineSet
Validated: 1
EndChar

StartChar: eight.onum
Encoding: 177 -1 105
Width: 1303
Flags: W
HStem: -29 99<481.049 821.22> 745 99<499.451 802.549> 1421 99<494.838 807.488>
VStem: 137 211<207.227 598.786> 186 203<959.191 1311.47> 913 203<959.191 1311.47> 954 211<207.227 598.786>
LayerCount: 2
Fore
SplineSet
954 408 m 0,0,1
 954 568 954 568 874.5 656.5 c 128,-1,2
 795 745 795 745 651 745 c 256,3,4
 507 745 507 745 427.5 656.5 c 128,-1,5
 348 568 348 568 348 408 c 0,6,7
 348 247 348 247 427.5 158.5 c 128,-1,8
 507 70 507 70 651 70 c 256,9,10
 795 70 795 70 874.5 158.5 c 128,-1,11
 954 247 954 247 954 408 c 0,0,1
913 1133 m 0,12,13
 913 1269 913 1269 844 1345 c 128,-1,14
 775 1421 775 1421 651 1421 c 0,15,16
 528 1421 528 1421 458.5 1345 c 128,-1,17
 389 1269 389 1269 389 1133 c 0,18,19
 389 996 389 996 458.5 920 c 128,-1,20
 528 844 528 844 651 844 c 0,21,22
 775 844 775 844 844 920 c 128,-1,23
 913 996 913 996 913 1133 c 0,12,13
805 795 m 1,24,25
 975 772 975 772 1070 669.5 c 128,-1,26
 1165 567 1165 567 1165 408 c 0,27,28
 1165 198 1165 198 1032 84.5 c 128,-1,29
 899 -29 899 -29 651 -29 c 0,30,31
 404 -29 404 -29 270.5 84.5 c 128,-1,32
 137 198 137 198 137 408 c 0,33,34
 137 567 137 567 232 669.5 c 128,-1,35
 327 772 327 772 498 795 c 1,36,37
 347 822 347 822 266.5 909.5 c 128,-1,38
 186 997 186 997 186 1133 c 0,39,40
 186 1313 186 1313 310 1416.5 c 128,-1,41
 434 1520 434 1520 651 1520 c 256,42,43
 868 1520 868 1520 992 1416.5 c 128,-1,44
 1116 1313 1116 1313 1116 1133 c 0,45,46
 1116 997 1116 997 1035.5 909.5 c 128,-1,47
 955 822 955 822 805 795 c 1,24,25
EndSplineSet
Validated: 1
EndChar

StartChar: nine.onum
Encoding: 178 -1 106
Width: 1303
Flags: W
HStem: -246 99<409.442 752.803> -186 248<207 327.476> 303 98<476.823 791.887> 1204 99<477.331 787.315>
VStem: 129 211<565.065 1030.41> 207 112<-56.7952 62> 958 207<218.809 452>
LayerCount: 2
Fore
SplineSet
958 452 m 1,0,1
 891 377 891 377 804 340 c 128,-1,2
 717 303 717 303 608 303 c 0,3,4
 386 303 386 303 257.5 437 c 128,-1,5
 129 571 129 571 129 803 c 0,6,7
 129 1030 129 1030 268.5 1166.5 c 128,-1,8
 408 1303 408 1303 641 1303 c 0,9,10
 894 1303 894 1303 1029.5 1114.5 c 128,-1,11
 1165 926 1165 926 1165 576 c 0,12,13
 1165 184 1165 184 1004 -31 c 128,-1,14
 843 -246 843 -246 551 -246 c 0,15,16
 472 -246 472 -246 385 -231 c 128,-1,17
 298 -216 298 -216 207 -186 c 1,18,-1
 207 62 l 1,19,-1
 319 62 l 1,20,21
 332 -39 332 -39 397 -93 c 128,-1,22
 462 -147 462 -147 571 -147 c 0,23,24
 765 -147 765 -147 861.5 -0.5 c 128,-1,25
 958 146 958 146 958 452 c 1,0,1
633 1204 m 0,26,27
 491 1204 491 1204 415.5 1100.5 c 128,-1,28
 340 997 340 997 340 803 c 256,29,30
 340 609 340 609 415.5 505 c 128,-1,31
 491 401 491 401 633 401 c 256,32,33
 775 401 775 401 850.5 501.5 c 128,-1,34
 926 602 926 602 926 791 c 0,35,36
 926 990 926 990 850 1097 c 128,-1,37
 774 1204 774 1204 633 1204 c 0,26,27
EndSplineSet
Validated: 1
EndChar
